<?xml version="1.0" standalone="no"?>
<!DOCTYPE svg PUBLIC "-//W3C//DTD SVG 1.1//EN" "http://www.w3.org/Graphics/SVG/1.1/DTD/svg11.dtd" >
<svg xmlns="http://www.w3.org/2000/svg">
<metadata></metadata>
<defs>
<font id="narkistammfwregular" horiz-adv-x="1036" >
<font-face units-per-em="2048" ascent="1638" descent="-410" />
<missing-glyph horiz-adv-x="471" />
<glyph horiz-adv-x="0" />
<glyph unicode="&#xd;" horiz-adv-x="512" />
<glyph unicode=" "  horiz-adv-x="471" />
<glyph unicode="&#x09;" horiz-adv-x="471" />
<glyph unicode="&#xa0;" horiz-adv-x="471" />
<glyph unicode="!" horiz-adv-x="581" d="M154 1280h219l-51 -913h-111zM176 0v197h178v-197h-178z" />
<glyph unicode="&#x22;" horiz-adv-x="759" d="M84 778l111 502h167l-180 -502h-98zM416 778l110 502h168l-180 -502h-98z" />
<glyph unicode="#" horiz-adv-x="989" d="M68 362l12 58h176l49 250h-180l12 57h180l68 348h68l-70 -348h217l70 348h61l-65 -348h176l-15 -57h-174l-51 -250h180l-10 -58h-182l-74 -362h-63l71 362h-211l-75 -362h-68l76 362h-178zM324 420h215l47 250h-217z" />
<glyph unicode="$" horiz-adv-x="1150" d="M129 287h156q0 -98 62.5 -153.5t156.5 -55.5v473q-92 27 -158.5 55.5t-109.5 65.5t-63.5 88t-20.5 125t29.5 129t78.5 93t112.5 57.5t131.5 19.5v164h65v-164q66 0 127.5 -17.5t109.5 -53.5t77.5 -90t29.5 -126h-151q0 92 -54.5 132t-138.5 40v-405q70 -20 137.5 -46 t121 -66t85 -98.5t31.5 -144.5q0 -84 -27.5 -148.5t-78 -107.5t-119 -65.5t-150.5 -22.5v-166h-67v166q-74 0 -141.5 19.5t-119 59.5t-82 100.5t-30.5 142.5zM299 895q0 -53 16.5 -86t44 -54.5t64.5 -35.5t80 -29v379q-39 0 -76 -11t-65.5 -32.5t-46 -54.5t-17.5 -76z M569 76q96 0 161 64.5t65 160.5q0 45 -20.5 82t-53.5 64.5t-73 47t-79 29.5v-448z" />
<glyph unicode="%" horiz-adv-x="1353" d="M104 858q0 57 12.5 116.5t42 107.5t76 79t113.5 31q70 0 117 -32t75.5 -81t41 -109.5t12.5 -117.5q0 -55 -13.5 -110.5t-42 -99.5t-73.5 -72.5t-109 -28.5q-68 0 -115.5 26.5t-78.5 71.5t-44.5 102.5t-13.5 116.5zM207 877q0 -37 4 -83t18.5 -87t43 -69t77.5 -28t77 27 t42 66.5t18.5 84.5t4.5 80t-5.5 79t-21.5 82t-45 63.5t-76 25.5q-43 0 -69.5 -25.5t-42 -63.5t-20.5 -80t-5 -72zM371 0l530 1186h90l-530 -1186h-90zM760 305q0 57 12 116.5t41 108t76 79t115 30.5t114.5 -32t75.5 -82t41 -110.5t12 -117.5q0 -55 -13 -110.5t-42 -99.5 t-74 -72.5t-108 -28.5q-68 0 -115 27.5t-78 72.5t-44 102.5t-13 116.5zM862 322q0 -37 4 -83t18.5 -87t43 -69t78.5 -28q47 0 75.5 28t43 67.5t18.5 84.5t4 80q0 39 -4 83t-19.5 81t-45 61.5t-79.5 24.5q-47 0 -74.5 -24.5t-41 -61.5t-17.5 -80t-4 -77z" />
<glyph unicode="&#x26;" horiz-adv-x="1392" d="M78 266q0 123 85 223.5t275 206.5q-66 201 -65 262q0 57 20.5 109.5t57 92.5t89 62.5t115.5 22.5q106 0 179 -60.5t73 -160.5q0 -49 -13 -90t-47 -78t-89.5 -72.5t-139.5 -74.5q51 -104 112 -196.5t132 -184.5q170 213 170 336q0 43 -23.5 59t-95.5 25v36h400v-36 q-78 -10 -112 -36t-62 -75l-45 -76q-23 -41 -52.5 -85t-62.5 -93l-72 -107q16 -31 47 -61.5t70 -55t80 -39t76 -14.5q43 2 74.5 12.5t58.5 39.5l43 49l26 -23q0 -20 -21.5 -56t-59 -69.5t-88 -59.5t-107.5 -26q-156 0 -313 170q-207 -170 -410 -170q-141 0 -223 76t-82 217z M248 332q0 -55 19.5 -102.5t51 -82t75.5 -54t93 -19.5q121 0 258 119q-131 152 -280 442l-86 -64q-59 -45 -95 -106.5t-36 -132.5zM520 1028q0 -106 74 -262q213 121 213 266q0 63 -39 109.5t-104 46.5q-143 0 -144 -160z" />
<glyph unicode="'" horiz-adv-x="423" d="M82 778l111 502h167l-180 -502h-98z" />
<glyph unicode="(" horiz-adv-x="591" d="M96 535q0 84 18.5 183t48.5 199.5t67.5 194.5t76.5 168h123q-35 -80 -67.5 -174t-57 -193.5t-39 -198t-14.5 -186.5q0 -84 16.5 -181t44 -195.5t63.5 -190.5t73 -166h-123q-43 74 -84 166t-74 190.5t-52.5 198t-19.5 185.5z" />
<glyph unicode=")" horiz-adv-x="591" d="M143 -205q37 74 72 168t62.5 194.5t44 199t16.5 180.5q0 86 -14.5 183t-39 195.5t-57 192.5t-67.5 172h127q37 -74 74.5 -167t67.5 -192.5t48.5 -197.5t18.5 -180q0 -84 -20.5 -184.5t-52.5 -202t-74 -195.5t-85 -166h-121z" />
<glyph unicode="*" horiz-adv-x="942" d="M100 825l295 142l-289 141l54 90l268 -178l-27 328h107l-21 -330l263 182l55 -92l-285 -143l285 -146l-55 -94l-261 188l21 -323h-107l25 323l-274 -182z" />
<glyph unicode="+" horiz-adv-x="1024" d="M102 465v141h340v340h142v-340h340v-141h-340v-340h-142v340h-340z" />
<glyph unicode="," horiz-adv-x="399" d="M18 -205l144 400h174l-203 -400h-115z" />
<glyph unicode="-" horiz-adv-x="980" d="M121 465v141h739v-141h-739z" />
<glyph unicode="." horiz-adv-x="413" d="M82 0v197h197v-197h-197z" />
<glyph unicode="/" horiz-adv-x="716" d="M43 -178l496 1421h135l-496 -1421h-135z" />
<glyph unicode="0" horiz-adv-x="1095" d="M102 578q0 109 21.5 215t73 191t137.5 137.5t215 52.5t215 -52.5t137 -137.5t71.5 -191t20.5 -215t-21.5 -216.5t-71.5 -193.5t-136 -139.5t-215 -53.5t-215 53.5t-137.5 139.5t-73 193.5t-21.5 216.5zM262 578q0 -74 8.5 -158t37 -155.5t86 -120t155.5 -48.5t154.5 48.5 t85 120t37 155.5t8.5 158t-7.5 156.5t-37 153t-86 117t-154.5 46.5t-155.5 -46.5t-87.5 -117t-37 -153.5t-7 -156z" />
<glyph unicode="1" horiz-adv-x="1095" d="M287 817v152q68 23 136.5 72t108.5 108h160v-1149h-168v1001q-51 -63 -106.5 -107t-130.5 -77z" />
<glyph unicode="2" horiz-adv-x="1095" d="M147 0v143q102 72 193.5 141.5t183.5 153.5q43 39 88 82t82 90t60.5 101.5t23.5 117.5q0 98 -62.5 159t-160.5 61q-113 0 -175.5 -56.5t-66.5 -171.5h-163q2 90 33.5 156.5t85 109.5t127 65t159.5 22q174 0 278.5 -90.5t104.5 -270.5q0 -49 -14.5 -93t-39 -86t-55 -79 t-63.5 -70q-106 -106 -225 -187t-240 -171q61 4 122.5 8t123.5 4h403v-139h-803z" />
<glyph unicode="3" horiz-adv-x="1095" d="M123 328h168q2 -49 22.5 -91t53 -73t76.5 -49.5t96 -18.5q111 0 185.5 54.5t74.5 171.5q0 72 -35 113.5t-87 64t-115.5 30t-121.5 7.5v120q49 2 105.5 10.5t103.5 30t79 59.5t32 99q0 96 -53.5 146.5t-153.5 50.5q-98 0 -159.5 -45t-65.5 -142h-168q4 80 37.5 137.5 t87 95.5t122 56.5t144.5 18.5q72 0 138.5 -18.5t117.5 -56.5t82 -94.5t31 -132.5q0 -74 -27 -120.5t-72 -76.5t-103.5 -46.5t-121.5 -28.5q68 -8 133.5 -23.5t116.5 -47t83 -83t32 -131.5q0 -90 -35 -154.5t-92.5 -105.5t-134 -60.5t-158.5 -19.5q-84 0 -159 22.5t-131 67 t-90 111t-38 152.5z" />
<glyph unicode="4" horiz-adv-x="1095" d="M84 268v174q131 180 264 354.5t266 352.5h224v-741h168v-140h-168v-268h-160v268h-594zM188 391q63 4 129 7t132 3h229v478q0 43 4 86t8 84q-127 -166 -249 -334t-253 -324z" />
<glyph unicode="5" horiz-adv-x="1095" d="M131 281h172q6 -43 30.5 -77t59.5 -57.5t76 -36t82 -12.5q61 0 108.5 24.5t79 64.5t49 92.5t17.5 107.5t-19.5 102.5t-55.5 81t-83 52t-102 18.5q-72 0 -132.5 -34t-90.5 -101h-127v643h718v-137h-567l-20 -367q53 53 113.5 87t138.5 34q178 0 282.5 -98.5t104.5 -278.5 q0 -92 -30 -168t-85 -131t-131 -85t-168 -30q-74 0 -145.5 16.5t-130 53.5t-97.5 94.5t-47 141.5z" />
<glyph unicode="6" horiz-adv-x="1095" d="M115 571q0 104 24.5 212t79.5 195t142.5 141.5t213.5 54.5q74 0 143.5 -14.5t123 -48.5t86.5 -89t37 -137h-166q-4 47 -23.5 79.5t-50.5 52t-70 28t-82 8.5q-98 0 -156.5 -60.5t-89 -147.5t-39.5 -182.5t-9 -164.5q47 109 118.5 168t192.5 59q180 0 289.5 -88t109.5 -270 q0 -92 -31.5 -165t-89 -123t-136.5 -77t-171 -27q-129 0 -215 52.5t-137 137.5t-72.5 191.5t-21.5 214.5zM317 350q0 -53 17.5 -99t50.5 -81t79 -55.5t103 -20.5q127 0 197 68.5t70 191.5q0 53 -18.5 99.5t-50.5 80t-78 53t-101 19.5q-123 0 -196 -68.5t-73 -187.5z" />
<glyph unicode="7" horiz-adv-x="1095" d="M129 1008v141h805v-174l-430 -975h-172l461 1008h-664z" />
<glyph unicode="8" horiz-adv-x="1095" d="M129 301q0 133 65.5 202.5t194.5 104.5q-55 16 -99 36t-75 49.5t-47 71.5t-16 103q0 76 35.5 132.5t92 95.5t127 58.5t140.5 19.5t140.5 -19.5t127.5 -58.5t93 -95.5t36 -132.5q0 -63 -15.5 -105t-46 -70.5t-74.5 -48t-101 -36.5q129 -35 195.5 -104.5t66.5 -202.5 q0 -82 -38 -143.5t-97.5 -101.5t-134 -60.5t-150.5 -20.5t-150.5 20.5t-135 60.5t-97.5 101.5t-37 143.5zM289 317q0 -53 21.5 -95t57 -71.5t83 -46t98.5 -16.5t98 16.5t83 46t57.5 71.5t21.5 95q0 51 -22.5 95.5t-59.5 75t-84 48t-96 17.5t-96.5 -17.5t-83 -48t-57 -74.5 t-21.5 -96zM309 866q0 -47 21.5 -84t55.5 -62.5t77 -38.5t86 -13t86 13t76.5 38.5t54 62.5t20.5 84q0 45 -21.5 81t-55 60.5t-76.5 38t-86 13.5t-86 -13.5t-77 -38t-54.5 -60.5t-20.5 -81z" />
<glyph unicode="9" horiz-adv-x="1095" d="M104 782q0 92 32 165t89.5 123t136 77t170.5 27q129 0 215.5 -52.5t137.5 -137.5t72.5 -191.5t21.5 -214.5q0 -104 -24.5 -212t-80 -195t-143.5 -141.5t-213 -54.5q-74 0 -143.5 14.5t-122.5 48.5t-87 89t-36 137h166q2 -47 22.5 -79.5t51 -52t69.5 -28t82 -8.5 q98 0 156.5 60.5t89.5 147.5t40 182.5t9 164.5q-47 -109 -118.5 -168t-192.5 -59q-180 0 -290 88t-110 270zM260 795q0 -53 18.5 -99.5t50 -80t78 -53t101.5 -19.5q123 0 195.5 68.5t72.5 187.5q0 53 -17.5 99t-50 81t-78.5 55.5t-104 20.5q-127 0 -196.5 -68.5 t-69.5 -191.5z" />
<glyph unicode=":" horiz-adv-x="493" d="M109 641v197h196v-197h-196zM111 0v197h196v-197h-196z" />
<glyph unicode=";" horiz-adv-x="509" d="M41 -305l90 502h201l-180 -502h-111zM131 641v197h199v-197h-199z" />
<glyph unicode="&#x3c;" horiz-adv-x="1024" d="M102 446v109l822 395v-145l-619 -305l619 -303v-146z" />
<glyph unicode="=" horiz-adv-x="1024" d="M100 256v133h822v-133h-822zM100 612v133h822v-133h-822z" />
<glyph unicode="&#x3e;" horiz-adv-x="1024" d="M104 51v146l619 303l-619 305v145l822 -395v-109z" />
<glyph unicode="?" horiz-adv-x="817" d="M59 1075v154q102 53 220 53q80 0 151.5 -16.5t125.5 -53t86 -98t32 -151.5q0 -86 -43 -145.5t-95.5 -113t-95.5 -108.5t-43 -131v-98h-180v100q0 82 42 141.5t92 112.5t92 109.5t42 132.5q0 45 -17 76.5t-47 52t-68 29.5t-77 9q-57 0 -111 -14t-106 -41zM209 0v197h197 v-197h-197z" />
<glyph unicode="@" horiz-adv-x="1982" d="M125 485q0 201 74.5 373t205 298t308.5 197.5t387 71.5q152 0 280.5 -53t222 -149.5t145.5 -229.5t52 -295q0 -139 -43 -270t-113.5 -233.5t-165 -165t-194.5 -62.5q-207 0 -207 168q0 25 4 56.5t13 72.5q-82 -96 -138.5 -153.5t-98.5 -90t-78 -43t-74 -10.5 q-86 0 -137.5 65.5t-51.5 178.5q0 225 176 481q184 268 400 269q61 0 102 -52.5t51 -122.5l41 134l168 20l-192 -649q-12 -45 -19.5 -82t-7.5 -70q0 -102 74 -102q80 0 155.5 59.5t135 154.5t95.5 215t36 241q0 135 -50.5 255.5t-135.5 211t-198.5 142.5t-242.5 52 q-190 0 -353 -69.5t-282 -191.5t-186.5 -287t-67.5 -355q0 -174 62.5 -326.5t171 -266.5t258 -179.5t323.5 -65.5q575 0 809 566h62q-145 -328 -357.5 -477.5t-525.5 -149.5q-199 0 -362.5 67.5t-281.5 189.5t-183.5 291t-65.5 371zM655 242q0 -143 113 -144 q70 0 145.5 66.5t139 165t104.5 213.5t41 213q0 29 -14.5 56.5t-34 49t-43 33.5t-41.5 12q-74 0 -147.5 -66.5t-132 -167t-94.5 -216t-36 -215.5z" />
<glyph unicode="A" horiz-adv-x="1536" d="M12 0v37q121 0 199 182l518 1206h49l510 -1206q23 -55 44.5 -90t48 -55.5t59.5 -28.5t80 -8v-37h-574v37q152 0 152 88q0 39 -25 94l-104 246h-543l-107 -246q-25 -55 -24 -92q0 -90 162 -90v-37h-445zM457 543h473l-232 561z" />
<glyph unicode="B" horiz-adv-x="1376" d="M41 0v37q111 0 154 38t43 146v950q0 109 -43 147t-154 38v37h707q102 0 187 -26t145.5 -71t93 -108.5t32.5 -136.5q0 -59 -11 -104.5t-38 -83.5t-71 -71.5t-111 -68.5v-4q137 -23 217 -114t80 -228q0 -80 -32 -148.5t-90 -120t-139 -80t-182 -28.5h-788zM451 102 q47 -10 104 -16t127 -6q166 0 263 78t97 211q0 154 -95 236.5t-277 82.5q-53 0 -107.5 -3t-111.5 -11v-572zM451 772q49 -14 268 -14q125 0 197.5 77.5t72.5 194.5q0 141 -95 217t-269 76q-43 0 -86 -6t-88 -17v-528z" />
<glyph unicode="C" horiz-adv-x="1402" d="M66 680q0 154 59 289t159.5 236.5t233.5 160.5t279 59q92 0 157.5 -16t135.5 -53q45 -25 65 -25q23 0 45.5 27.5t30.5 66.5h35l34 -473h-49q-10 82 -48 156t-95 129t-128 87t-149 32q-113 0 -208 -49.5t-163.5 -139.5t-106.5 -216t-38 -279q0 -139 40 -254t112 -197 t173 -128t222 -46q244 0 438 299l35 -20q-47 -84 -108.5 -150.5t-133 -113t-148.5 -71t-154 -24.5q-154 0 -287 55.5t-230.5 151.5t-152.5 226t-55 280z" />
<glyph unicode="D" horiz-adv-x="1509" d="M41 0v37q111 0 154 38t43 146v950q0 109 -43 147t-154 38v37h618q213 0 362.5 -54.5t243 -147.5t136.5 -217t43 -265q0 -156 -52.5 -286t-148.5 -224.5t-231 -146.5t-301 -52h-670zM451 102q78 -32 217 -32h8q115 0 210 48t163.5 133t106.5 201t38 253q0 129 -40 241.5 t-108.5 196.5t-164 132t-205.5 48q-96 0 -225 -35v-1186z" />
<glyph unicode="E" horiz-adv-x="1280" d="M41 0v37q111 0 154 38t43 146v950q0 109 -43 147t-154 38v37h1069v-332h-20q-29 145 -96.5 203.5t-190.5 58.5h-352v-528h301q209 0 209 180h36v-471h-36q0 221 -205 221h-305v-569q0 -35 24.5 -60.5t56.5 -25.5h291q270 0 371 321h49l-125 -391h-1077z" />
<glyph unicode="F" horiz-adv-x="1130" d="M41 0v37q111 0 154 38t43 146v950q0 109 -43 147t-154 38v37h1032v-332h-20q-29 145 -96.5 203.5t-190.5 58.5h-315v-528h211q209 0 208 180h37v-471h-37q0 221 -204 221h-215v-504q0 -109 43 -146.5t153 -37.5v-37h-606z" />
<glyph unicode="G" horiz-adv-x="1552" d="M66 680q0 154 59 289t159.5 236.5t233.5 160.5t279 59q68 0 136 -14t123.5 -32.5t89.5 -32.5l34 -15q23 0 45 27.5t30 66.5h35l35 -473h-49q-102 403 -445 404q-113 0 -208 -49.5t-163.5 -139.5t-106.5 -216t-38 -279q0 -139 40 -254t112 -197t173 -128t222 -46 q162 0 271 96v389q0 49 -9.5 83t-31 54.5t-59.5 29t-95 8.5v36h549v-36q-80 0 -110.5 -38t-30.5 -137v-430q-227 -135 -555 -135q-154 0 -287 55.5t-230.5 151.5t-152.5 226t-55 280z" />
<glyph unicode="H" horiz-adv-x="1538" d="M41 0v37q111 0 154 38t43 146v950q0 109 -43 147t-154 38v37h606v-37q-111 0 -153.5 -38t-42.5 -147v-413h636v413q0 109 -43 147t-153 38v37h606v-37q-111 0 -154 -38t-43 -147v-950q0 -109 43 -146.5t154 -37.5v-37h-606v37q111 0 153.5 38t42.5 146v467h-636v-467 q0 -109 43 -146.5t153 -37.5v-37h-606z" />
<glyph unicode="I" horiz-adv-x="700" d="M47 0v37q111 0 154 38t43 146v950q0 109 -43 147t-154 38v37h606v-37q-111 0 -153.5 -38t-42.5 -147v-950q0 -109 43 -146.5t153 -37.5v-37h-606z" />
<glyph unicode="J" horiz-adv-x="813" d="M8 127q0 43 36 72.5t77 29.5q61 0 90 -49l39 -96q10 -23 27.5 -35t35.5 -12q70 0 70 133v1001q0 109 -43 147t-154 38v37h607v-37q-111 0 -154 -38t-43 -147v-725q0 -236 -104.5 -357.5t-284.5 -121.5q-92 0 -145.5 44t-53.5 116z" />
<glyph unicode="K" horiz-adv-x="1540" d="M41 0v37q111 0 154 38t43 146v950q0 109 -43 147t-154 38v37h606v-37q-111 0 -153.5 -38t-42.5 -147v-395l444 402q94 86 94 129q0 49 -129 49v37h514v-39q-47 0 -88 -8.5t-80 -27t-80 -49t-90 -75.5l-413 -387l565 -563q74 -74 120 -116t82.5 -62.5t73.5 -24.5t95 -4 v-37h-650v37q98 0 99 74q0 37 -78 114l-479 482v-486q0 -109 43 -146.5t153 -37.5v-37h-606z" />
<glyph unicode="L" horiz-adv-x="1286" d="M41 0v37q111 0 154 38t43 146v950q0 109 -43 147t-154 38v37h606v-37q-111 0 -153.5 -38t-42.5 -147v-997q0 -43 23.5 -73.5t55.5 -30.5h261q315 0 417 319l41 -10l-121 -379h-1087z" />
<glyph unicode="M" horiz-adv-x="1896" d="M41 0v37q111 0 154 38t43 146v950q0 109 -43 147t-154 38v37h414l493 -1069h10l484 1069h409v-37q-111 0 -153.5 -38t-42.5 -147v-950q0 -109 43 -146.5t153 -37.5v-37h-606v37q111 0 154 38t43 146v920h-8l-519 -1141h-43l-526 1133h-14v-912q0 -109 43 -146.5 t153 -37.5v-37h-487z" />
<glyph unicode="N" horiz-adv-x="1513" d="M0 1356v37h350l830 -1018h8v796q0 109 -43 147t-154 38v37h488v-37q-111 0 -154 -38t-43 -147v-1204h-49l-899 1133h-8v-879q0 -109 43 -146.5t153 -37.5v-37h-487v37q111 0 153.5 38t42.5 146v938q0 43 -18 79t-49 62.5t-73 41t-91 14.5z" />
<glyph unicode="O" horiz-adv-x="1527" d="M66 705q0 150 55 280.5t149.5 229t221 154.5t272.5 56q143 0 271 -56t222.5 -154.5t149.5 -229t55 -280.5q0 -152 -54 -285t-148.5 -234.5t-221.5 -160t-274 -58.5t-274.5 58.5t-221.5 160t-148 234.5t-54 285zM315 705q0 -152 31 -275t89.5 -211t141 -135t187.5 -47 q102 0 185 48t141.5 135t90 210t31.5 275q0 147 -30.5 267t-89 205t-141.5 132t-187 47t-188 -46t-141.5 -131t-88.5 -206t-31 -268z" />
<glyph unicode="P" horiz-adv-x="1179" d="M41 0v37q111 0 154 38t43 146v950q0 109 -43 147t-154 38v37h598q104 0 191.5 -29t150.5 -81t98 -125t35 -163q0 -84 -31.5 -153.5t-87 -118.5t-131.5 -75.5t-166 -26.5q-154 0 -247 24v-424q0 -109 43 -146.5t153 -37.5v-37h-606zM451 723q100 -31 161 -31q127 0 200 77 t73 212q0 72 -22.5 133.5t-60.5 105.5t-90.5 69.5t-109.5 25.5q-92 0 -151 -21v-571z" />
<glyph unicode="Q" horiz-adv-x="1511" d="M66 705q0 152 54 282.5t147 228t219 153.5t270 56q143 0 269 -56t219 -153.5t147.5 -228t54.5 -282.5q0 -123 -41 -242t-111.5 -215t-166 -166t-205.5 -94q25 -78 77 -148.5t122.5 -124t152.5 -84t164 -30.5v-37q-117 0 -244 35.5t-247 95t-222 137.5t-168 164 q-106 29 -196.5 101.5t-156 170t-102 211t-36.5 226.5zM307 705q0 -152 31 -275t89 -211t141 -135t188 -47q217 27 332.5 200t115.5 468q0 147 -30.5 267t-89 205t-141.5 132t-187 47t-188.5 -46t-141.5 -131t-88 -206t-31 -268z" />
<glyph unicode="R" horiz-adv-x="1415" d="M41 0v37q111 0 154 38t43 146v950q0 109 -43 147t-154 38v37h635q104 0 188 -25t144.5 -71t93.5 -113.5t33 -153.5q0 -129 -84 -223t-226 -131l297 -436q137 -203 316 -203v-37h-398l-440 655h-149v-434q0 -109 43 -146.5t153 -37.5v-37h-606zM451 725h122 q74 0 134.5 21.5t104.5 59.5t68.5 93t24.5 123q0 66 -21.5 121t-57 95t-84 62.5t-103.5 22.5q-123 0 -188 -27v-571z" />
<glyph unicode="S" horiz-adv-x="1146" d="M148.5 1199.5q29.5 68.5 85 118.5t131 78.5t167.5 28.5q51 0 102.5 -13t141.5 -48q39 -16 64 -16q29 0 52 25.5t23 51.5h37v-485h-39q-18 193 -116.5 300.5t-264.5 107.5q-49 0 -95 -18.5t-79.5 -49.5t-54 -71t-20.5 -85q0 -121 196 -239l369 -213q196 -139 196 -305 q0 -88 -33.5 -161t-94 -126t-146.5 -83t-190 -30q-47 0 -101.5 12.5t-103.5 26.5t-87 26.5t-52 12.5q-53 0 -66 -78h-37v471h37q6 -88 43 -160.5t94.5 -124t131 -80t157.5 -28.5q53 0 101 17.5t84 48t57.5 72.5t21.5 91q0 139 -192 258l-357 205q-192 134 -192 312 q0 82 29.5 150.5z" />
<glyph unicode="T" horiz-adv-x="1208" d="M20 1061v332h1147v-332h-20q-29 145 -96.5 203.5t-190.5 58.5h-151v-1102q0 -109 43 -146.5t153 -37.5v-37h-606v37q111 0 154 38t43 146v1102h-152q-131 0 -195.5 -63.5t-91.5 -198.5h-37z" />
<glyph unicode="U" horiz-adv-x="1540" d="M35 1356v37h606v-37q-111 0 -154 -38t-43 -147v-682q0 -90 28 -167.5t79 -137t124 -93.5t163 -34q86 0 157.5 32t123.5 89.5t82 136t30 174.5v682q0 109 -43 147t-154 38v37h488v-37q-111 0 -154 -38t-43 -147v-682q0 -248 -145.5 -385t-409.5 -137q-121 0 -220 38 t-170 107.5t-110 167t-39 214.5v677q0 109 -43 147t-153 38z" />
<glyph unicode="V" horiz-adv-x="1482" d="M0 1356v37h569v-37q-152 0 -151 -96q2 -20 7 -47t21 -62l375 -866l344 852q25 57 25 104q0 115 -143 115v37h430v-37q-125 0 -220 -236l-466 -1153h-54l-528 1217q-41 94 -88 133t-121 39z" />
<glyph unicode="W" horiz-adv-x="1937" d="M0 1356v37h516v-37q-137 0 -137 -76q0 -41 35 -137l286 -809l232 651l-53 152q-25 70 -46.5 113.5t-46 66t-54.5 31t-70 8.5v37h542v-37q-139 0 -139 -78q0 -51 31 -139l278 -805l283 811q12 35 16 62.5t6 45.5q0 102 -149 103l2 37h414v-37q-37 0 -64 -6.5t-47 -28 t-39.5 -64.5t-44.5 -116l-399 -1174h-49l-322 883l-313 -883h-50l-417 1168q-25 70 -44.5 112.5t-41 67t-49 33t-66.5 8.5z" />
<glyph unicode="X" horiz-adv-x="1519" d="M0 0v37q39 0 84 14.5t90 40t84 59t66 68.5l362 473l-342 494q-121 170 -295 170v37h653v-37q-147 0 -147 -78q0 -39 41 -98l219 -324l254 322q53 70 53 108q0 70 -141 70v37h489v-39q-82 0 -140 -34t-128 -120l-340 -428l393 -551q43 -61 74 -97t57.5 -55.5t53 -25.5 t63.5 -6v-37h-604v35q137 2 137 80q-2 20 -10 46.5t-31 59.5l-258 389l-293 -377q-55 -55 -55 -110q0 -86 127 -86v-37h-516z" />
<glyph unicode="Y" horiz-adv-x="1421" d="M-33 1356v37h606v-37q-86 0 -125.5 -24.5t-39.5 -71.5q0 -39 36 -97l301 -483l314 504q20 33 20 71q0 100 -145 101v37h489v-37q-43 0 -77.5 -9.5t-64.5 -30t-57.5 -53t-58.5 -81.5l-364 -580v-381q0 -109 43 -146.5t153 -37.5v-37h-606v37q111 0 154 38t43 146v359 l-412 618q-33 49 -56.5 80t-46 48t-47 23.5t-59.5 6.5z" />
<glyph unicode="Z" horiz-adv-x="1273" d="M20 0v35l898 1278h-431q-78 0 -131 -12.5t-89 -43t-55 -83t-30 -132.5h-37l31 351h1047l-924 -1313h563q51 0 100.5 21.5t92.5 59.5t76.5 90t56.5 114h37l-66 -365h-1139z" />
<glyph unicode="[" horiz-adv-x="598" d="M143 -205v1485h361v-96h-209v-1295h209v-94h-361z" />
<glyph unicode="\" horiz-adv-x="563" d="M-2 1425h96l467 -1458h-96z" />
<glyph unicode="]" horiz-adv-x="598" d="M94 -111h209v1295h-209v96h361v-1485h-361v94z" />
<glyph unicode="^" horiz-adv-x="1015" d="M25 672l450 753h66l450 -753h-129l-356 598l-359 -598h-122z" />
<glyph unicode="_" horiz-adv-x="1126" d="M0 -205h1126v-94h-1126v94z" />
<glyph unicode="`" horiz-adv-x="411" d="M23 1835h258l108 -362h-57z" />
<glyph unicode="a" horiz-adv-x="911" d="M66 215q0 160 174 260q68 39 338 135v58q0 231 -166 231q-139 0 -140 -143q0 -125 -84 -125q-39 0 -64.5 31.5t-25.5 78.5q0 45 28 85t75 70t109.5 47.5t133.5 17.5q303 0 304 -250v-533q0 -72 47 -72q53 0 104 82v-69q-84 -139 -219 -139q-45 0 -73.5 41.5t-28.5 107.5 q-66 -55 -104 -85t-65.5 -44t-54 -17t-69.5 -3q-100 0 -159.5 65.5t-59.5 169.5zM236 264q0 -68 41.5 -119t97.5 -51q76 0 203 103v352q-342 -121 -342 -285z" />
<glyph unicode="b" d="M-8 1300l280 125h50v-659q20 39 53 73.5t72.5 61.5t83.5 43.5t85 16.5q74 0 136.5 -34t108.5 -90.5t71.5 -133t25.5 -162.5q0 -111 -36.5 -213.5t-100 -179t-151.5 -122.5t-189 -46q-205 0 -329 112v1034q0 53 -3.5 84t-9.5 46.5t-18 19.5t-31 4q-18 0 -84 -16zM322 154 q92 -96 194 -97q57 0 106.5 32t84 88t54 134t19.5 170q0 68 -19.5 129.5t-53 107.5t-79.5 72.5t-98 26.5q-57 0 -117.5 -33.5t-90.5 -81.5v-548z" />
<glyph unicode="c" horiz-adv-x="1093" d="M154 446q0 106 35.5 199.5t96 163.5t141.5 111t171 41q74 0 134.5 -17.5t104.5 -48.5t67.5 -72t23.5 -86q0 -43 -35 -73.5t-78 -30.5q-45 0 -72.5 31.5t-27.5 72.5q0 154 -144 154q-55 0 -101 -24.5t-79 -68.5t-50 -103.5t-17 -127.5q0 -92 21.5 -174t60 -141t94 -94 t123.5 -35q190 0 288 246l39 -13q-43 -180 -144 -278t-249 -98q-86 0 -159.5 36.5t-128 100t-85 148.5t-30.5 181z" />
<glyph unicode="d" horiz-adv-x="1044" d="M66 459q0 94 35.5 185t97 160.5t143.5 113t174 43.5q109 0 195 -87v252q0 53 -3 84t-9.5 46.5t-18.5 19.5t-31 4q-18 0 -84 -16l-14 36l280 125h50v-1146q0 -92 18.5 -125t67.5 -33q31 0 67 16l13 -28l-287 -129h-49v112q-124 -112 -280 -112h-3q-76 0 -142.5 39.5 t-115.5 105t-76.5 153t-27.5 181.5zM254 512q0 -88 20.5 -167t57.5 -137t86 -92t106 -34q106 0 187 96v465q0 51 -17.5 96t-47.5 79t-67.5 53.5t-80.5 19.5q-53 0 -97.5 -28.5t-77 -80t-51 -120t-18.5 -150.5z" />
<glyph unicode="e" horiz-adv-x="946" d="M66 436q0 113 30.5 209t86 167t133 110t171.5 39q80 0 150 -30t121 -80t80.5 -119.5t29.5 -149.5h-639q0 -94 22.5 -178.5t62.5 -146.5t96.5 -98t121.5 -36q53 0 106.5 16.5t97.5 46t76 68.5t42 82l37 -6q-18 -72 -60.5 -136.5t-97.5 -111.5t-119.5 -74.5t-128.5 -27.5 q-88 0 -164.5 36.5t-133 99t-89 145.5t-32.5 175zM229 631h426q0 51 -17 99t-47 83t-71 56.5t-86 21.5q-39 0 -73.5 -21.5t-62.5 -57.5t-46.5 -83t-22.5 -98z" />
<glyph unicode="f" horiz-adv-x="598" d="M37 870v70h180v141q0 72 25.5 134.5t68.5 109.5t101.5 73.5t124.5 26.5h4q297 0 297 -165q0 -80 -84 -80q-63 0 -109 88q-45 88 -117 88q-27 0 -52 -14.5t-44.5 -39t-32 -56.5t-12.5 -66v-240h229v-70h-229v-651q0 -104 28.5 -143t119.5 -39v-37h-465v37q41 0 68.5 7 t45 26.5t25.5 55.5t8 93v651h-180z" />
<glyph unicode="g" horiz-adv-x="1024" d="M41 -242q0 31 6 55.5t26.5 53.5t58.5 64.5t99 91.5q-112 39 -112 113q0 30 13 60.5t37 58.5t55.5 51.5t68.5 37.5q-184 86 -184 279q0 70 29.5 131t80.5 107t120 73t146 27q174 0 242 -68h244v-78h-162q55 -86 55 -182q0 -74 -29.5 -134.5t-83 -103.5t-126 -66.5 t-158.5 -23.5q-66 0 -125 21q-59 -53 -59 -109q0 -61 108 -65l318 -15q262 -12 262 -211q0 -84 -35 -150.5t-101.5 -112.5t-160.5 -71.5t-211 -25.5q-422 0 -422 192zM205 -152q0 -72 90 -115.5t233 -43.5q72 0 137.5 12t117 35.5t81 54.5t29.5 68q0 121 -213 121 q-131 0 -229.5 7t-167.5 21q-78 -66 -78 -160zM299 657q0 -66 14.5 -121t41 -95t62.5 -63.5t79 -23.5q37 0 70.5 18.5t58 50.5t40 74t15.5 89q0 68 -17.5 127t-46 103t-68.5 69.5t-83 25.5q-166 0 -166 -254z" />
<glyph unicode="h" horiz-adv-x="1064" d="M12 1300l281 125h49v-655q154 190 332 191q45 0 84 -23t67.5 -61.5t46 -91t17.5 -109.5v-457q0 -104 28.5 -143t118.5 -39v-37h-465v37q41 0 69 7t45 26.5t25.5 55.5t8.5 93v426q0 188 -137 189q-115 0 -240 -136v-479q0 -104 28.5 -143t118.5 -39v-37h-464v37 q41 0 68.5 7t45 26.5t25.5 55.5t8 93v907q0 53 -3 84t-9 46.5t-18.5 19.5t-30.5 4t-84 -16z" />
<glyph unicode="i" horiz-adv-x="569" d="M51 836l281 125h49v-742q0 -104 28.5 -143t118.5 -39v-37h-465v37q41 0 69 7t45.5 26.5t25.5 55.5t8 93v443q0 53 -3 83.5t-9 46t-18.5 19.5t-30.5 4t-84 -16zM197 1331q0 39 28.5 66.5t69.5 27.5t69.5 -27.5t28.5 -66.5t-28.5 -66.5t-69.5 -27.5t-69.5 27.5t-28.5 66.5z " />
<glyph unicode="j" horiz-adv-x="569" d="M-129 -322q0 80 88 80q18 0 37.5 -19.5t41 -42t42 -42t43.5 -19.5q88 0 88 160v867q0 53 -3 83.5t-9 46t-18.5 19.5t-30.5 4t-84 -16l-15 37l281 125h49v-961q0 -121 -14.5 -203t-52.5 -134t-104.5 -74.5t-170.5 -22.5q-76 0 -122 32.5t-46 79.5zM197 1331 q0 39 28.5 66.5t69.5 27.5t69.5 -27.5t28.5 -66.5t-28.5 -66.5t-69.5 -27.5t-69.5 27.5t-28.5 66.5z" />
<glyph unicode="k" horiz-adv-x="1044" d="M20 1300l281 125h49v-890l228 206q37 35 72.5 70t37.5 59q0 33 -74 33v37h390v-37q-47 0 -80 -4t-68 -19.5t-76 -46t-102 -83.5l-172 -150l278 -352q49 -63 86 -104.5t70 -65t64.5 -32.5t70.5 -9v-37h-465v37q61 0 62 47q0 31 -76 125l-246 307v-297q0 -104 29 -143 t119 -39v-37h-465v37q41 0 68.5 7t45 26.5t25.5 55.5t8 93v907q0 53 -3 84t-9 46.5t-18.5 19.5t-30.5 4t-84 -16z" />
<glyph unicode="l" horiz-adv-x="567" d="M41 1300l281 125h49v-1206q0 -104 28.5 -143t118.5 -39v-37h-465v37q41 0 69 7t45 26.5t25.5 55.5t8.5 93v907q0 53 -3 84t-9.5 46.5t-18.5 19.5t-31 4q-18 0 -84 -16z" />
<glyph unicode="m" horiz-adv-x="1648" d="M20 836l281 125h49v-195q37 43 79 79t85 61.5t85 40t79 14.5q41 0 80 -15.5t71.5 -43.5t55 -63.5t30.5 -76.5q18 39 56.5 74.5t85.5 63.5t97 44.5t97 16.5q45 0 88 -24t75 -63.5t51.5 -93t19.5 -114.5v-447q0 -104 28.5 -143t118.5 -39v-37h-465v37q41 0 69 7t45 26.5 t25.5 55.5t8.5 93v420q0 80 -45 137.5t-109 57.5q-70 0 -140.5 -39t-102.5 -95v-481q0 -104 28.5 -143t118.5 -39v-37h-465v37q41 0 68.5 7t45 26.5t26 55.5t8.5 93v420q0 39 -12.5 75t-34 62.5t-49 42t-58.5 15.5q-63 0 -134 -39t-110 -95v-481q0 -104 29 -143t119 -39v-37 h-465v37q41 0 68.5 7t45 26.5t25.5 55.5t8 93v443q0 53 -3 83.5t-9 46t-18.5 19.5t-30.5 4t-84 -16z" />
<glyph unicode="n" horiz-adv-x="1060" d="M20 836l281 125h49v-191q154 190 332 191q45 0 84 -23t67.5 -61.5t46 -91t17.5 -109.5v-457q0 -104 28.5 -143t118.5 -39v-37h-464v37q41 0 68.5 7t45 26.5t25.5 55.5t8 93v426q0 188 -137 189q-115 0 -240 -136v-479q0 -104 29 -143t119 -39v-37h-465v37q41 0 68.5 7 t45 26.5t25.5 55.5t8 93v443q0 53 -3 83.5t-9 46t-18.5 19.5t-30.5 4t-84 -16z" />
<glyph unicode="o" d="M66 459q0 104 34.5 195t95 160t143.5 108t179 39t179 -36t143.5 -98.5t95.5 -147.5t35 -181q0 -109 -34 -203t-94.5 -165t-143.5 -110.5t-181 -39.5q-96 0 -179 36.5t-143.5 101t-95 152.5t-34.5 189zM256 545q0 -109 21.5 -200t60.5 -156.5t93 -102.5t120 -37 q51 0 93 30t73 79t47 112t16 131q0 489 -303 490q-45 0 -85 -27.5t-70.5 -76t-48 -111t-17.5 -131.5z" />
<glyph unicode="p" horiz-adv-x="1056" d="M14 836l281 125h49v-211q147 211 311 211q74 0 136.5 -35t106.5 -95.5t68.5 -140.5t24.5 -172q0 -121 -30.5 -220t-86 -170t-132 -109.5t-169.5 -38.5q-135 0 -229 69v-227q0 -104 28.5 -143t119.5 -39v-37h-465v37q90 0 118.5 39.5t28.5 142.5v840q0 53 -3 83.5t-9 46 t-18.5 19.5t-30.5 4t-84 -16zM344 254q0 -86 64.5 -145.5t164.5 -59.5q49 0 91.5 28.5t73 78t48 117t17.5 147.5q0 199 -59.5 306.5t-163.5 107.5q-133 0 -236 -152v-428z" />
<glyph unicode="q" horiz-adv-x="1048" d="M66 424q0 111 36.5 208t100 171t148.5 116t181 42q135 0 181 -70l129 70h41v-1139q0 -104 28.5 -143t118.5 -39v-37h-465v37q90 0 119 39.5t29 142.5v325q-136 -167 -303 -167h-2q-72 0 -134.5 35.5t-108.5 96t-72.5 141.5t-26.5 171zM244 522q0 -82 19.5 -154.5t53 -127 t79.5 -86t100 -31.5q33 0 66.5 9t63 25.5t52 37t35.5 43.5v475q0 37 -15.5 68.5t-43 56t-64.5 39t-80 14.5q-55 0 -104.5 -30t-85 -81t-56 -117.5t-20.5 -140.5z" />
<glyph unicode="r" horiz-adv-x="704" d="M16 836l281 125h49v-197q119 197 244 197q55 0 94 -33t39 -80q0 -92 -98 -92q-20 0 -40 9t-38.5 21.5t-34.5 21.5t-29 9q-55 0 -137 -147v-451q0 -104 28.5 -143t119.5 -39v-37h-465v37q41 0 68.5 7t45 26.5t25.5 55.5t8 93v443q0 53 -3 83.5t-9 46t-18.5 19.5t-30.5 4 t-84 -16z" />
<glyph unicode="s" horiz-adv-x="823" d="M102 698q0 117 76 190t201 73q27 0 60.5 -6.5t65.5 -12.5t56.5 -12t30.5 -6q33 0 43 37h37v-314h-37q-4 53 -24.5 99.5t-53.5 80t-75 53t-87 19.5q-74 0 -120 -37t-46 -88t39 -89t96.5 -70.5t126 -64.5t126 -72t96.5 -91t39 -123q0 -125 -86 -204.5t-242 -79.5 q-25 0 -62.5 7t-74.5 16t-64.5 16.5t-32.5 7.5q-31 0 -43 -27h-36v326h36q8 -55 34 -105.5t64 -88.5t85 -60.5t98 -22.5q66 0 111 40t45 95q0 45 -33 84t-85 74t-114.5 67.5t-124.5 63.5q-125 88 -125 225z" />
<glyph unicode="t" horiz-adv-x="593" d="M16 870v50q49 0 92.5 26.5t78 72.5t60 109.5t38.5 135.5h49v-324h227v-70h-227v-671q0 -41 26.5 -71t65.5 -30q78 0 123 101h45q-66 -219 -262 -219q-168 0 -168 219v671h-148z" />
<glyph unicode="u" horiz-adv-x="1060" d="M16 903v37h318v-668q0 -72 55 -121t133 -49q51 0 110.5 44t92.5 108v487q0 94 -30.5 128t-116.5 34v37h317v-661q0 -92 18.5 -125t67.5 -33q31 0 68 16l12 -28l-287 -129h-49v196q-23 -39 -56.5 -73.5t-72.5 -62.5t-81 -44t-81 -16q-57 0 -106 23.5t-86 63t-57.5 93 t-20.5 112.5v469q0 94 -31 128t-117 34z" />
<glyph unicode="v" horiz-adv-x="1011" d="M0 903v37h426v-37q-109 0 -109 -59q0 -39 31 -115l205 -500l213 521q12 31 19.5 58.5t7.5 55.5q0 39 -117 39v37h317v-37q-78 0 -129 -123l-334 -800h-49l-334 780q-37 86 -66.5 114.5t-80.5 28.5z" />
<glyph unicode="w" horiz-adv-x="1542" d="M0 903v37h410v-37q-80 0 -80 -51q0 -47 37 -139l184 -459l176 451l-20 53q-10 27 -29 53.5t-43.5 47t-52 32.5t-58.5 12v37h475v-37q-129 0 -129 -67q0 -39 35 -123l185 -459l153 438q20 59 29.5 96t11.5 52q0 63 -90 63v37h348v-37q-41 0 -72.5 -9t-56 -31.5t-45 -58.5 t-39.5 -91l-270 -733h-49l-244 630l-244 -630h-49l-285 725q-27 70 -44 108.5t-36.5 59t-44 25.5t-63.5 5z" />
<glyph unicode="x" horiz-adv-x="1030" d="M16 903v37h443v-37q-66 0 -66 -49q0 -27 39 -86l92 -145l82 114q35 47 49.5 78t16.5 47q0 41 -82 41v37h328v-37q-31 0 -56.5 -8t-52.5 -28.5t-56.5 -55.5t-68.5 -86l-121 -162l260 -385q94 -141 195 -141v-37h-461l2 37q96 0 96 59q0 23 -59 113l-135 207l-182 -236 q-35 -47 -35 -90q0 -53 86 -53v-37h-305v37q59 0 147 119l244 321l-189 301q-80 125 -211 125z" />
<glyph unicode="y" horiz-adv-x="1052" d="M0 903v37h432v-37q-100 0 -100 -74q0 -31 71 -180l183 -385l194 479q29 74 29 103q0 57 -96 57v37h305v-37q-27 0 -44.5 -5t-32.5 -22.5t-30.5 -49t-38.5 -85.5l-378 -925q-47 -111 -127 -180.5t-162 -69.5q-59 0 -98 30.5t-39 75.5q0 98 104 99q41 0 71.5 -18.5 t63.5 -18.5q63 0 135 170l60 143l-293 615q-117 241 -208 241h-1z" />
<glyph unicode="z" horiz-adv-x="948" d="M41 0v49l618 821h-337q-96 0 -129 -48t-37 -142h-37v260h782v-37l-631 -833h400q47 0 80.5 9t56 33.5t35 69.5t18.5 117h37l-20 -299h-836z" />
<glyph unicode="{" horiz-adv-x="530" d="M76 510v94q47 16 70.5 59.5t23.5 90.5v282q0 137 78 190.5t207 53.5v-90q-57 0 -91 -11.5t-52.5 -36t-24.5 -61.5t-6 -88v-264q0 -49 -26 -99t-71 -75q37 -35 66 -86t29 -100v-314q0 -98 37.5 -134t138.5 -36v-90h-19q-121 0 -192.5 52.5t-71.5 179.5v321q0 47 -24.5 94 t-71.5 68z" />
<glyph unicode="|" horiz-adv-x="466" d="M168 -324v1495h119v-1495h-119z" />
<glyph unicode="}" horiz-adv-x="530" d="M74 -115q100 0 137 36t37 134v312q0 49 29.5 100t66.5 86q-45 25 -69.5 75t-24.5 99v266q0 57 -5 95t-23.5 60.5t-53.5 32t-94 9.5v90q74 0 128 -8t90 -34t52 -74t16 -128v-284q0 -47 25 -90.5t72 -59.5v-94q-47 -20 -71 -67.5t-24 -94.5v-319q0 -63 -19 -107.5t-55 -72 t-86 -40t-110 -12.5h-18v90z" />
<glyph unicode="~" horiz-adv-x="815" d="M78 651q0 39 17.5 69t47 50.5t66.5 30.5t76 10q31 0 80 -13.5t99 -30.5t93 -30.5t59 -13.5q72 0 76 55h45q0 -63 -55 -104t-147 -41t-193 41l-66 33q-41 18 -65 18q-84 0 -90 -74h-43z" />
<glyph unicode="&#xa1;" horiz-adv-x="567" d="M164 -98q2 39 6 84t16 98l41 178q10 59 22.5 171t24.5 278h43q10 -121 19.5 -242t25.5 -207q4 -18 14.5 -61t22 -95.5t19.5 -106.5t8 -97q0 -184 -129 -185q-133 0 -133 185zM176 928q0 47 36 80.5t87 33.5t87 -33.5t36 -80.5t-36 -80t-87 -33t-87 33t-36 80z" />
<glyph unicode="&#xa2;" horiz-adv-x="1024" d="M121 -397l170 463q-170 139 -170 380q0 104 36 198.5t97 164.5t142 111t171 41h29.5t24.5 -3l161 435h82l-166 -449q199 -51 199 -207q0 -43 -35 -73.5t-78 -30.5q-47 0 -67.5 25.5t-28.5 60.5t-11 69.5t-15 53.5l-236 -637q74 -74 168 -74q190 0 289 244l28 -17 q-92 -379 -385 -378q-86 0 -168 43l-155 -420h-82zM293 567q0 -166 76 -291l225 609q-23 6 -53 6q-55 0 -101.5 -24.5t-79 -68.5t-50 -103.5t-17.5 -127.5z" />
<glyph unicode="&#xa3;" horiz-adv-x="1085" d="M41 104q0 72 51 119t131 47q16 0 45 -5t41 -5q4 39 7 79t3 85q0 63 -6 134t-16 149h-211v69h201q-12 123 -13 187q0 102 29 187t81 146.5t128 95t168 33.5q57 0 105.5 -17t84 -47t56 -67t20.5 -75q0 -33 -24.5 -61t-57.5 -28q-84 0 -86 125q-2 106 -129 107 q-195 0 -194 -291q0 -51 6 -124t16 -171h279v-69h-273l-2 -99q-2 -98 -19.5 -189t-49.5 -179q178 -84 346 -84q186 0 233 163l35 -8q-8 -74 -33.5 -137t-66.5 -109.5t-95.5 -72t-119.5 -25.5q-184 0 -342 170q-72 -170 -197 -170q-53 0 -92 40t-39 97zM106 117q0 -86 68 -86 q90 0 127 145q-47 29 -94 29q-100 0 -101 -88z" />
<glyph unicode="&#xa4;" horiz-adv-x="1085" d="M20 256l160 154q-113 113 -112 288q0 164 112 289l-160 154l62 59l160 -153q119 106 301 106t301 -106l160 153l61 -59l-160 -154q113 -119 113 -289t-113 -288l160 -154l-61 -59l-160 153q-119 -106 -301 -106t-301 106l-160 -153zM158 698q0 -78 30.5 -145.5t83 -117.5 t122 -78.5t149.5 -28.5q78 0 147.5 28.5t122.5 78.5t84 117.5t31 145.5q0 76 -32 143.5t-84 119t-123 80t-146 28.5q-78 0 -147.5 -28.5t-123 -79t-84 -118t-30.5 -145.5z" />
<glyph unicode="&#xa5;" horiz-adv-x="1243" d="M0 1356v37h606v-37q-158 0 -157 -80q2 -16 7 -45t21 -68l37 -94h315l50 115q18 43 18 78q0 94 -143 94v37h489v-37q-182 0 -262 -174l-51 -113h200v-78h-235l-94 -205h329v-77h-364l-47 -105v-383q0 -109 42 -146.5t152 -37.5v-37h-620v37q57 0 96 8t60.5 28.5t30.5 56.5 t9 91v359l-55 129h-344v77h309l-88 205h-221v78h189l-58 133q-68 154 -221 154zM545 991l119 -301l131 301h-250z" />
<glyph unicode="&#xa6;" horiz-adv-x="335" d="M123 752h104v-752zM123 1012v823h104v-823h-104z" />
<glyph unicode="&#xa7;" horiz-adv-x="1024" d="M123 512q0 221 237 354q-135 131 -135 258q0 63 24.5 118.5t65.5 95.5t97.5 63.5t122.5 23.5q57 0 106 -18t86 -50t57.5 -74t20.5 -91q0 -35 -24.5 -62.5t-59.5 -27.5t-60.5 23.5t-25.5 56.5q0 16 8 49t8 51q0 94 -116 94q-80 0 -137.5 -49t-57.5 -123q0 -111 141 -229 l267 -207q141 -133 141 -283q0 -47 -17.5 -97t-49 -97t-76 -87t-95.5 -67q137 -137 137 -254q0 -63 -23.5 -120.5t-65.5 -101.5t-99 -69.5t-125 -25.5q-51 0 -99 17.5t-86 49t-60.5 74.5t-22.5 92q0 35 24.5 62.5t59.5 27.5q78 0 78 -92q0 -20 -8.5 -56t-8.5 -54 q0 -72 131 -72q33 0 68 16.5t61.5 41t44 56t17.5 62.5q0 111 -144 229l-264 216q-143 135 -143 276zM233 602q0 -119 144 -244l239 -190q162 86 162 221q0 123 -141 250l-242 195q-162 -88 -162 -232z" />
<glyph unicode="&#xa8;" horiz-adv-x="583" d="M23 1638q0 39 28.5 67t69.5 28t69.5 -28t28.5 -67t-28.5 -66.5t-69.5 -27.5t-69.5 27.5t-28.5 66.5zM383 1638q0 39 28.5 67t69.5 28t70 -28t29 -67t-29 -66.5t-70 -27.5t-69.5 27.5t-28.5 66.5z" />
<glyph unicode="&#xa9;" horiz-adv-x="1556" d="M47 698q0 152 58.5 284t159 230.5t233.5 155.5t280 57q152 0 285 -58t232.5 -157.5t156.5 -232t57 -279.5q0 -150 -57 -282.5t-156.5 -232t-232.5 -158t-285 -58.5t-284 57.5t-232 158t-157.5 232.5t-57.5 283zM111 698q0 -137 53 -259t144 -212t213 -143t257 -53 q137 0 259 52t213 142t143.5 212t52.5 261q0 135 -53.5 256t-143.5 211t-212 143.5t-259 53.5q-135 0 -256 -52.5t-213 -141.5t-145 -210.5t-53 -259.5zM305 686q0 109 37 198t102.5 152.5t156.5 98t200 34.5q76 0 186 -39l37 -10q37 0 53 49h37l21 -290h-37 q-29 113 -111 177t-199 64q-311 0 -311 -397q0 -422 344 -422q215 0 318 164l41 -23q-143 -211 -402 -211q-96 0 -182 35t-150.5 96.5t-102.5 144.5t-38 179z" />
<glyph unicode="&#xaa;" horiz-adv-x="655" d="M25 940q0 152 368 272v19q0 82 -24.5 118.5t-89.5 36.5q-55 0 -72 -26.5t-23 -58t-16 -58t-49 -26.5q-66 0 -66 61q0 68 67.5 107.5t186.5 39.5q236 0 236 -194v-287q0 -47 30 -49l60 35v-47q-100 -76 -160 -76q-66 0 -80 94q-131 -94 -229 -94q-53 0 -96 39t-43 94z M174 985q0 -37 27.5 -63.5t66.5 -26.5q31 0 64 18.5t61 36.5v215q-219 -61 -219 -180z" />
<glyph unicode="&#xab;" horiz-adv-x="1081" d="M102 471l408 469h63l-262 -469l262 -471h-63zM508 471l407 469h64l-262 -469l262 -471h-64z" />
<glyph unicode="&#xac;" horiz-adv-x="1239" d="M41 850v90h1157v-422h-90v332h-1067z" />
<glyph unicode="&#xad;" horiz-adv-x="980" d="M121 465v141h739v-141h-739z" />
<glyph unicode="&#xae;" horiz-adv-x="1556" d="M47 698q0 152 58.5 284t159 230.5t233.5 155.5t280 57q152 0 285 -58t232.5 -157.5t156.5 -232t57 -279.5q0 -150 -57 -282.5t-156.5 -232t-232.5 -158t-285 -58.5t-284 57.5t-232 158t-157.5 232.5t-57.5 283zM111 698q0 -137 53 -259t144 -212t213 -143t257 -53 q137 0 259 52t213 142t143.5 212t52.5 261q0 135 -53.5 256t-143.5 211t-212 143.5t-259 53.5q-135 0 -256 -52.5t-213 -141.5t-145 -210.5t-53 -259.5zM381 260v37q113 0 113 139v561q0 70 -18.5 95.5t-82.5 25.5v37h389q156 0 252 -58.5t96 -170.5q0 -176 -239 -232 l209 -284q27 -39 44 -61.5t32.5 -34t33 -14.5t43.5 -3v-37h-206l-318 416h-82v-240q0 -139 129 -139v-37h-395zM647 723h21q286 0 286 188q0 86 -61.5 142.5t-153.5 56.5q-47 0 -92 -16v-371z" />
<glyph unicode="&#xaf;" horiz-adv-x="929" d="M219 1057v55h518v-55h-518z" />
<glyph unicode="&#xb0;" horiz-adv-x="819" d="M76 1114q0 66 26.5 123t72.5 99t105.5 65.5t125.5 23.5q68 0 127 -24.5t105 -67.5t72.5 -100.5t26.5 -120.5q0 -66 -25.5 -123t-70.5 -101t-103.5 -69.5t-125.5 -25.5q-72 0 -133.5 25.5t-106.5 70.5t-70.5 102.5t-25.5 122.5zM170 1114q0 -49 18.5 -92t51 -76t76.5 -51 t96 -18q51 0 93 19t72.5 52t48 75t17.5 89t-19.5 89t-52 73t-75.5 49t-90 18t-90.5 -18t-75 -49t-51 -73t-19.5 -87z" />
<glyph unicode="&#xb1;" horiz-adv-x="1163" d="M90 975v168h395v360h181v-360h395v-168h-395v-359h-181v359h-395zM135 358v166h881v-166h-881z" />
<glyph unicode="&#xb2;" horiz-adv-x="563" d="M88 410v86q61 43 116 84.5t110 92.5q26 23 53 49t49.5 54t36.5 61t14 70q0 59 -37.5 95.5t-96.5 36.5q-68 0 -105.5 -33.5t-39.5 -102.5h-98q1 54 20 93.5t51 65.5t76 39t96 13q104 0 167 -54t63 -162q0 -30 -9 -56t-23.5 -51.5t-33 -47.5t-37.5 -42 q-64 -64 -135.5 -112.5t-143.5 -102.5q36 3 73 5t74 2h242v-83h-482z" />
<glyph unicode="&#xb3;" horiz-adv-x="565" d="M74 607h101q1 -30 13 -55t31.5 -43.5t46 -29.5t57.5 -11q67 0 111.5 32.5t44.5 102.5q0 43 -21 68t-52 38.5t-69 18t-73 4.5v72q29 1 63 6.5t62.5 18t47.5 35.5t19 60q0 57 -32 87.5t-92 30.5q-59 0 -96 -27t-39 -85h-101q2 48 22.5 82.5t52.5 57t73 33.5t87 11 q43 0 83 -11t70.5 -33.5t49 -56.5t18.5 -80q0 -44 -16 -72t-43 -46t-62.5 -28t-72.5 -17q40 -5 79.5 -14t70 -28t50 -50t19.5 -79q0 -54 -21 -92.5t-55.5 -63.5t-80.5 -36.5t-95 -11.5q-51 0 -96 13.5t-78.5 40t-54 66.5t-22.5 92z" />
<glyph unicode="&#xb4;" horiz-adv-x="411" d="M23 1473l108 362h258l-309 -362h-57z" />
<glyph unicode="&#xb5;" horiz-adv-x="1075" d="M39 -315q0 14 9 60t20.5 108.5t20.5 137.5t9 148v801h170v-575q0 -270 160 -271q131 0 252 139v707h170v-690q0 -31 6 -61.5t16.5 -55t24.5 -40t31 -15.5q76 0 88 129h47q-4 -104 -60.5 -172t-152.5 -68q-158 0 -170 197q-170 -197 -340 -197q-104 0 -162 82h-4 q0 -53 7 -112.5t14.5 -111.5t14.5 -91t7 -51q0 -117 -86 -117q-92 0 -92 119z" />
<glyph unicode="&#xb6;" horiz-adv-x="1103" d="M61 1030q0 186 110 290.5t345 104.5h533v-57h-144v-1765h-78v1765h-200v-1765h-78v1042q-109 0 -198 20.5t-153.5 65.5t-100.5 119t-36 180z" />
<glyph unicode="&#xb7;" horiz-adv-x="389" d="M109 487q0 35 25.5 59.5t60.5 24.5q37 0 61.5 -24.5t24.5 -59.5q0 -37 -25 -61.5t-61 -24.5q-35 0 -60.5 25t-25.5 61z" />
<glyph unicode="&#xb8;" horiz-adv-x="708" d="M199 -217q111 -25 170 -25q72 0 71 52q0 55 -86 55q-8 0 -16 -1t-19 -1v125h52v-64q166 1 166 -110q0 -121 -166 -121q-72 0 -170 26z" />
<glyph unicode="&#xb9;" horiz-adv-x="546" d="M172 900v91q41 14 82 43.5t65 64.5h96v-689h-101v601q-30 -38 -63.5 -64.5t-78.5 -46.5z" />
<glyph unicode="&#xba;" horiz-adv-x="673" d="M25 1104q0 70 23.5 128t66.5 101t102 67.5t131 24.5q66 0 121 -24.5t96 -65.5t63.5 -97.5t22.5 -117.5t-25.5 -118.5t-69.5 -100.5t-101.5 -68.5t-118.5 -25.5q-66 0 -122 21.5t-98 60.5t-66.5 94t-24.5 121zM174 1178q0 -63 14.5 -121t39 -102t57 -70.5t69.5 -26.5 q148 0 148 197q0 61 -14.5 118.5t-40 101.5t-61.5 71.5t-79 27.5q-133 0 -133 -196z" />
<glyph unicode="&#xbb;" horiz-adv-x="1081" d="M102 0l263 471l-263 469h64l407 -469l-407 -471h-64zM508 0l262 471l-262 469h63l408 -469l-408 -471h-63z" />
<glyph unicode="&#xbc;" horiz-adv-x="1155" d="M33 1002v91q41 14 82 43.5t65 64.5h96v-689h-101v601q-30 -38 -63.5 -64.5t-78.5 -46.5zM166 -178l496 1421h135l-496 -1421h-135zM562 161v104q79 108 159 213t159 211h135v-444h101v-84h-101v-161h-96v161h-357zM625 235q38 2 77.5 4t78.5 2h138v286q0 26 2.5 52 t4.5 50q-76 -99 -149.5 -200t-151.5 -194z" />
<glyph unicode="&#xbd;" horiz-adv-x="1183" d="M33 1002v91q41 14 82 43.5t65 64.5h96v-689h-101v601q-30 -38 -63.5 -64.5t-78.5 -46.5zM166 -178l496 1421h135l-496 -1421h-135zM672 0v86q61 43 116 84.5t110 92.5q26 23 53 49t49.5 54t36.5 61t14 70q0 59 -37.5 95.5t-96.5 36.5q-68 0 -105.5 -33.5t-39.5 -102.5 h-98q1 54 20 93.5t51 65.5t76 39t96 13q104 0 167 -54t63 -162q0 -30 -9 -56t-23.5 -51.5t-33 -47.5t-37.5 -42q-64 -64 -135.5 -112.5t-143.5 -102.5q36 3 73 5t74 2h242v-83h-482z" />
<glyph unicode="&#xbe;" horiz-adv-x="1339" d="M35 705h101q1 -30 13 -55t31.5 -43.5t46 -29.5t57.5 -11q67 0 111.5 32.5t44.5 102.5q0 43 -21 68t-52 38.5t-69 18t-73 4.5v72q29 1 63 6.5t62.5 18t47.5 35.5t19 60q0 57 -32 87.5t-92 30.5q-59 0 -96 -27t-39 -85h-101q2 48 22.5 82.5t52.5 57t73 33.5t87 11 q43 0 83 -11t70.5 -33.5t49 -56.5t18.5 -80q0 -44 -16 -72t-43 -46t-62.5 -28t-72.5 -17q40 -5 79.5 -14t70 -28t50 -50t19.5 -79q0 -54 -21 -92.5t-55.5 -63.5t-80.5 -36.5t-95 -11.5q-51 0 -96 13.5t-78.5 40t-54 66.5t-22.5 92zM358 -178l496 1421h135l-496 -1421h-135z M755 161v104q79 108 159 213t159 211h135v-444h101v-84h-101v-161h-96v161h-357zM818 235q38 2 77.5 4t78.5 2h138v286q0 26 2.5 52t4.5 50q-76 -99 -149.5 -200t-151.5 -194z" />
<glyph unicode="&#xbf;" horiz-adv-x="882" d="M66 281q0 63 32.5 102t81.5 39q80 0 80 -90q0 -12 -10 -35t-22.5 -48.5t-22.5 -50t-10 -38.5q0 -51 57 -83t135 -32q231 0 231 268q-2 59 -15 120t-44 124l-108 217q-59 143 -60 293h49q0 -131 103 -270l186 -234q102 -139 102 -264q0 -78 -28.5 -139.5t-79.5 -104.5 t-124 -65.5t-159 -22.5q-78 0 -145.5 22.5t-118.5 63.5t-80.5 98.5t-29.5 129.5zM301 1315q0 45 34 77.5t81 32.5t80.5 -32.5t33.5 -77.5t-33.5 -78t-80.5 -33t-81 33t-34 78z" />
<glyph unicode="&#xc0;" horiz-adv-x="1536" d="M12 0v37q121 0 199 182l518 1206h49l510 -1206q23 -55 44.5 -90t48 -55.5t59.5 -28.5t80 -8v-37h-574v37q152 0 152 88q0 39 -25 94l-104 246h-543l-107 -246q-25 -55 -24 -92q0 -90 162 -90v-37h-445zM457 543h473l-232 561zM596 1835h258l109 -362h-58z" />
<glyph unicode="&#xc1;" horiz-adv-x="1536" d="M12 0v37q121 0 199 182l518 1206h49l510 -1206q23 -55 44.5 -90t48 -55.5t59.5 -28.5t80 -8v-37h-574v37q152 0 152 88q0 39 -25 94l-104 246h-543l-107 -246q-25 -55 -24 -92q0 -90 162 -90v-37h-445zM457 543h473l-232 561zM535 1473l108 362h258l-309 -362h-57z" />
<glyph unicode="&#xc2;" horiz-adv-x="1536" d="M12 0v37q121 0 199 182l518 1206h49l510 -1206q23 -55 44.5 -90t48 -55.5t59.5 -28.5t80 -8v-37h-668l94 37q152 0 152 88q0 39 -25 94l-104 246h-543l-107 -246q-25 -55 -24 -92q0 -90 162 -90v-37h-445zM451 1513l204 342h197l205 -342h-35l-268 220l-269 -220h-34z M457 543h473l-232 561z" />
<glyph unicode="&#xc3;" horiz-adv-x="1536" d="M12 0v37q121 0 199 182l518 1206h49l510 -1206q23 -55 44.5 -90t48 -55.5t59.5 -28.5t80 -8v-37h-574v37q152 0 152 88q0 39 -25 94l-104 246h-543l-107 -246q-25 -55 -24 -92q0 -90 162 -90v-37h-445zM438 1573q0 37 18.5 66.5t48.5 50t66.5 32t73.5 11.5q31 0 80 -13.5 t100.5 -31t93.5 -30.5t58 -13q72 0 76 55h45q0 -70 -59.5 -108t-143.5 -38q-68 0 -124 19.5t-132 54.5q-41 18 -68 19q-84 0 -90 -74h-43zM457 543h473l-232 561z" />
<glyph unicode="&#xc4;" horiz-adv-x="1536" d="M12 0v37q121 0 199 182l518 1206h49l510 -1206q23 -55 44.5 -90t48 -55.5t59.5 -28.5t80 -8v-37h-574v37q152 0 152 88q0 39 -25 94l-104 246h-543l-107 -246q-25 -55 -24 -92q0 -90 162 -90v-37h-445zM457 543h473l-232 561zM469 1638q0 39 28.5 67t69.5 28t70 -28 t29 -67t-29 -66.5t-70 -27.5t-69.5 27.5t-28.5 66.5zM829 1638q0 39 29 67t70 28t69.5 -28t28.5 -67t-28.5 -66.5t-69.5 -27.5t-70 27.5t-29 66.5z" />
<glyph unicode="&#xc5;" horiz-adv-x="1536" d="M12 0v37q121 0 199 182l518 1206h49l510 -1206q23 -55 44.5 -90t48 -55.5t59.5 -28.5t80 -8v-37h-574v37q152 0 152 88q0 39 -25 94l-104 246h-543l-107 -246q-25 -55 -24 -92q0 -90 162 -90v-37h-445zM457 543h473l-232 561zM629 1653q0 51 36.5 88t90.5 37q53 0 90 -37 t37 -88q0 -53 -37 -90t-90 -37t-90 36.5t-37 90.5zM688 1653q0 -68 68 -68q27 0 47 19.5t20 48.5q0 27 -20.5 47t-46.5 20q-68 0 -68 -67z" />
<glyph unicode="&#xc6;" horiz-adv-x="2181" d="M12 0v37q98 0 240 182l846 1098q-39 39 -156 39v37h1069v-332h-20q-29 145 -96.5 203.5t-190.5 58.5h-352v-528h301q209 0 209 180h36v-471h-36q0 221 -205 221h-305v-569q0 -35 24.5 -60.5t57.5 -25.5h290q270 0 371 321h49l-125 -391h-1077v37q111 0 154 38t43 146v244 h-590l-189 -246q-35 -47 -34 -86q0 -96 172 -96v-37h-486zM600 543h539v628v29.5t-2 24.5z" />
<glyph unicode="&#xc7;" horiz-adv-x="1402" d="M66 680q0 154 59 289t159.5 236.5t233.5 160.5t279 59q92 0 157.5 -16t135.5 -53q45 -25 65 -25q23 0 45.5 27.5t30.5 66.5h35l34 -473h-49q-10 82 -48 156t-95 129t-128 87t-149 32q-113 0 -208 -49.5t-163.5 -139.5t-106.5 -216t-38 -279q0 -139 40 -254t112 -197 t173 -128t222 -46q244 0 438 299l35 -20q-47 -82 -107.5 -147.5t-129 -112t-145 -72t-152.5 -27.5v-43q166 1 166 -110q0 -121 -166 -121q-72 0 -170 26l-2 64q111 -25 170 -25q72 0 71 52q0 55 -86 55q-8 0 -16 -1t-18 -1v106q-147 6 -272.5 64.5t-217.5 155t-143 222.5 t-51 269z" />
<glyph unicode="&#xc8;" horiz-adv-x="1280" d="M41 0v37q111 0 154 38t43 146v950q0 109 -43 147t-154 38v37h1069v-332h-20q-29 145 -96.5 203.5t-190.5 58.5h-352v-528h301q209 0 209 180h36v-471h-36q0 221 -205 221h-305v-569q0 -35 24.5 -60.5t56.5 -25.5h291q270 0 371 321h49l-125 -391h-1077zM432 1835h258 l109 -362h-58z" />
<glyph unicode="&#xc9;" horiz-adv-x="1280" d="M41 0v37q111 0 154 38t43 146v950q0 109 -43 147t-154 38v37h1069v-332h-20q-29 145 -96.5 203.5t-190.5 58.5h-352v-528h301q209 0 209 180h36v-471h-36q0 221 -205 221h-305v-569q0 -35 24.5 -60.5t56.5 -25.5h291q270 0 371 321h49l-125 -391h-1077zM551 1473l108 362 h259l-310 -362h-57z" />
<glyph unicode="&#xca;" horiz-adv-x="1280" d="M41 0v37q111 0 154 38t43 146v950q0 109 -43 147t-154 38v37h1069v-332h-20q-29 145 -96.5 203.5t-190.5 58.5h-352v-528h301q209 0 209 180h36v-471h-36q0 221 -205 221h-305v-569q0 -35 24.5 -60.5t56.5 -25.5h291q270 0 371 321h49l-125 -391h-1077zM328 1513l204 342 h197l205 -342h-35l-268 220l-269 -220h-34z" />
<glyph unicode="&#xcb;" horiz-adv-x="1280" d="M41 0v37q111 0 154 38t43 146v950q0 109 -43 147t-154 38v37h1069v-332h-20q-29 145 -96.5 203.5t-190.5 58.5h-352v-528h301q209 0 209 180h36v-471h-36q0 221 -205 221h-305v-569q0 -35 24.5 -60.5t56.5 -25.5h291q270 0 371 321h49l-125 -391h-1077zM371 1638 q0 39 28.5 67t69.5 28t69.5 -28t28.5 -67t-28.5 -66.5t-69.5 -27.5t-69.5 27.5t-28.5 66.5zM731 1638q0 39 28.5 67t69.5 28t70 -28t29 -67t-29 -66.5t-70 -27.5t-69.5 27.5t-28.5 66.5z" />
<glyph unicode="&#xcc;" horiz-adv-x="700" d="M47 0v37q111 0 154 38t43 146v950q0 109 -43 147t-154 38v37h606v-37q-111 0 -153.5 -38t-42.5 -147v-950q0 -109 43 -146.5t153 -37.5v-37h-606zM104 1835h258l109 -362h-57z" />
<glyph unicode="&#xcd;" horiz-adv-x="700" d="M47 0v37q111 0 154 38t43 146v950q0 109 -43 147t-154 38v37h606v-37q-111 0 -153.5 -38t-42.5 -147v-950q0 -109 43 -146.5t153 -37.5v-37h-606zM186 1473l109 362h258l-309 -362h-58z" />
<glyph unicode="&#xce;" horiz-adv-x="700" d="M47 0v37q111 0 154 38t43 146v950q0 109 -43 147t-154 38v37h606v-37q-111 0 -153.5 -38t-42.5 -147v-950q0 -109 43 -146.5t153 -37.5v-37h-606zM47 1513l205 342h197l204 -342h-35l-268 220l-268 -220h-35z" />
<glyph unicode="&#xcf;" horiz-adv-x="700" d="M47 0v37q111 0 154 38t43 146v950q0 109 -43 147t-154 38v37h606v-37q-111 0 -153.5 -38t-42.5 -147v-950q0 -109 43 -146.5t153 -37.5v-37h-606zM76 1638q0 39 28.5 67t69.5 28t69.5 -28t28.5 -67t-28.5 -66.5t-69.5 -27.5t-69.5 27.5t-28.5 66.5zM436 1638q0 39 29 67 t70 28t69.5 -28t28.5 -67t-29 -66.5t-69 -27.5q-41 0 -70 27.5t-29 66.5z" />
<glyph unicode="&#xd1;" horiz-adv-x="1513" d="M0 1356v37h350l830 -1018h8v796q0 109 -43 147t-154 38v37h488v-37q-111 0 -154 -38t-43 -147v-1204h-49l-899 1133h-8v-879q0 -109 43 -146.5t153 -37.5v-37h-487v37q111 0 153.5 38t42.5 146v938q0 43 -18 79t-49 62.5t-73 41t-91 14.5zM397 1573q0 37 18.5 66.5 t48.5 50t66.5 32t73.5 11.5q31 0 80 -13.5t100.5 -31t93.5 -30.5t58 -13q72 0 76 55h45q0 -70 -59.5 -108t-143.5 -38q-68 0 -124 19.5t-132 54.5q-41 18 -68 19q-84 0 -90 -74h-43z" />
<glyph unicode="&#xd2;" d="M66 459q0 104 34.5 195t95 160t143.5 108t179 39t179 -36t143.5 -98.5t95.5 -147.5t35 -181q0 -109 -34 -203t-94.5 -165t-143.5 -110.5t-181 -39.5q-96 0 -179 36.5t-143.5 101t-95 152.5t-34.5 189zM256 545q0 -109 21.5 -200t60.5 -156.5t93 -102.5t120 -37 q51 0 93 30t73 79t47 112t16 131q0 489 -303 490q-45 0 -85 -27.5t-70.5 -76t-48 -111t-17.5 -131.5zM309 1436h258l109 -363h-58z" />
<glyph unicode="&#xd3;" d="M66 459q0 104 34.5 195t95 160t143.5 108t179 39t179 -36t143.5 -98.5t95.5 -147.5t35 -181q0 -109 -34 -203t-94.5 -165t-143.5 -110.5t-181 -39.5q-96 0 -179 36.5t-143.5 101t-95 152.5t-34.5 189zM256 545q0 -109 21.5 -200t60.5 -156.5t93 -102.5t120 -37 q51 0 93 30t73 79t47 112t16 131q0 489 -303 490q-45 0 -85 -27.5t-70.5 -76t-48 -111t-17.5 -131.5zM309 1073l109 363h258l-309 -363h-58z" />
<glyph unicode="&#xd4;" d="M66 459q0 104 34.5 195t95 160t143.5 108t179 39t179 -36t143.5 -98.5t95.5 -147.5t35 -181q0 -109 -34 -203t-94.5 -165t-143.5 -110.5t-181 -39.5q-96 0 -179 36.5t-143.5 101t-95 152.5t-34.5 189zM225 1114l205 342h197l204 -342h-34l-269 219l-268 -219h-35z M256 545q0 -109 21.5 -200t60.5 -156.5t93 -102.5t120 -37q51 0 93 30t73 79t47 112t16 131q0 489 -303 490q-45 0 -85 -27.5t-70.5 -76t-48 -111t-17.5 -131.5z" />
<glyph unicode="&#xd5;" horiz-adv-x="1527" d="M66 705q0 150 55 280.5t149.5 229t221 154.5t272.5 56q143 0 271 -56t222.5 -154.5t149.5 -229t55 -280.5q0 -152 -54 -285t-148.5 -234.5t-221.5 -160t-274 -58.5t-274.5 58.5t-221.5 160t-148 234.5t-54 285zM315 705q0 -152 31 -275t89.5 -211t141 -135t187.5 -47 q102 0 185 48t141.5 135t90 210t31.5 275q0 147 -30.5 267t-89 205t-141.5 132t-187 47t-188 -46t-141.5 -131t-88.5 -206t-31 -268zM430 1573q0 37 18.5 66.5t48 50t66.5 32t74 11.5q31 0 80 -13.5t100 -31t93 -30.5t59 -13q72 0 75 55h46q0 -70 -59.5 -108t-143.5 -38 q-68 0 -124 19.5t-132 54.5q-41 18 -68 19q-84 0 -90 -74h-43z" />
<glyph unicode="&#xd6;" horiz-adv-x="1527" d="M66 705q0 150 55 280.5t149.5 229t221 154.5t272.5 56q143 0 271 -56t222.5 -154.5t149.5 -229t55 -280.5q0 -152 -54 -285t-148.5 -234.5t-221.5 -160t-274 -58.5t-274.5 58.5t-221.5 160t-148 234.5t-54 285zM315 705q0 -152 31 -275t89.5 -211t141 -135t187.5 -47 q102 0 185 48t141.5 135t90 210t31.5 275q0 147 -30.5 267t-89 205t-141.5 132t-187 47t-188 -46t-141.5 -131t-88.5 -206t-31 -268zM500 1638q0 39 28.5 67t69.5 28t69.5 -28t28.5 -67t-28.5 -66.5t-69.5 -27.5t-69.5 27.5t-28.5 66.5zM860 1638q0 39 29 67t69 28 q41 0 70 -28t29 -67t-29 -66.5t-70 -27.5t-69.5 27.5t-28.5 66.5z" />
<glyph unicode="&#xd7;" horiz-adv-x="1189" d="M68 117l411 381l-411 376l114 107l412 -381l416 381l114 -107l-413 -376l413 -381l-114 -105l-416 381l-412 -381z" />
<glyph unicode="&#xd8;" horiz-adv-x="1527" d="M66 705q0 150 55 280.5t149.5 229t221 154.5t272.5 56q133 0 248 -45l94 209l51 -22l-92 -209q90 -45 162.5 -112.5t125 -152.5t81 -184.5t28.5 -203.5q0 -152 -54 -285t-148.5 -234.5t-221.5 -160t-274 -58.5t-289 66l-92 -205l-53 22l94 209q-82 47 -148.5 117 t-112.5 154t-71.5 179t-25.5 196zM315 705q0 -356 156 -537l504 1128q-96 59 -211 60q-106 0 -189 -46t-140.5 -130t-88.5 -205t-31 -270zM516 125q100 -88 248 -88q104 0 187 48t141.5 136t89 211t30.5 273q0 387 -190 557z" />
<glyph unicode="&#xd9;" horiz-adv-x="1060" d="M16 903v37h318v-668q0 -72 55 -121t133 -49q51 0 110.5 44t92.5 108v487q0 94 -30.5 128t-116.5 34v37h317v-661q0 -92 18.5 -125t67.5 -33q31 0 68 16l12 -28l-287 -129h-49v196q-23 -39 -56.5 -73.5t-72.5 -62.5t-81 -44t-81 -16q-57 0 -106 23.5t-86 63t-57.5 93 t-20.5 112.5v469q0 94 -31 128t-117 34zM248 1436h258l108 -363h-57z" />
<glyph unicode="&#xda;" horiz-adv-x="1060" d="M16 903v37h318v-668q0 -72 55 -121t133 -49q51 0 110.5 44t92.5 108v487q0 94 -30.5 128t-116.5 34v37h317v-661q0 -92 18.5 -125t67.5 -33q31 0 68 16l12 -28l-287 -129h-49v196q-23 -39 -56.5 -73.5t-72.5 -62.5t-81 -44t-81 -16q-57 0 -106 23.5t-86 63t-57.5 93 t-20.5 112.5v469q0 94 -31 128t-117 34zM295 1073l108 363h259l-310 -363h-57z" />
<glyph unicode="&#xdb;" horiz-adv-x="1060" d="M16 903v37h318v-668q0 -72 55 -121t133 -49q51 0 110.5 44t92.5 108v487q0 94 -30.5 128t-116.5 34v37h317v-661q0 -92 18.5 -125t67.5 -33q31 0 68 16l12 -28l-287 -129h-49v196q-23 -39 -56.5 -73.5t-72.5 -62.5t-81 -44t-81 -16q-57 0 -106 23.5t-86 63t-57.5 93 t-20.5 112.5v469q0 94 -31 128t-117 34zM205 1114l205 342h196l205 -342h-35l-268 219l-268 -219h-35z" />
<glyph unicode="&#xdc;" horiz-adv-x="1540" d="M35 1356v37h606v-37q-111 0 -154 -38t-43 -147v-682q0 -90 28 -167.5t79 -137t124 -93.5t163 -34q86 0 157.5 32t123.5 89.5t82 136t30 174.5v682q0 109 -43 147t-154 38v37h488v-37q-111 0 -154 -38t-43 -147v-682q0 -248 -145.5 -385t-409.5 -137q-121 0 -220 38 t-170 107.5t-110 167t-39 214.5v677q0 109 -43 147t-153 38zM514 1638q0 39 28.5 67t69.5 28t70 -28t29 -67t-29 -66.5t-70 -27.5t-69.5 27.5t-28.5 66.5zM874 1638q0 39 29 67t70 28t69.5 -28t28.5 -67t-28.5 -66.5t-69.5 -27.5t-70 27.5t-29 66.5z" />
<glyph unicode="&#xdf;" horiz-adv-x="1208" d="M55 0v39q59 0 96 10t58.5 31.5t29 54.5t7.5 78v719q0 117 73 280q84 188 312 189q80 0 145.5 -21.5t111.5 -61.5t71.5 -95.5t25.5 -124.5q0 -123 -77 -207t-199 -117q111 -29 189.5 -72t128.5 -95t72.5 -111.5t22.5 -116.5q0 -78 -26.5 -150.5t-74.5 -128t-114.5 -89.5 t-146.5 -34q-86 0 -144.5 41t-58.5 113q0 41 24.5 69.5t65.5 28.5q37 0 60.5 -22.5t31.5 -104.5q6 -61 62 -61q129 0 129 293q0 78 -22.5 147.5t-67.5 121.5t-115 86t-162 40v59q78 16 126 37t75 51.5t36 73.5t9 107q0 133 -51 211t-140 78q-174 0 -174 -256v-1090h-389z " />
<glyph unicode="&#xe0;" horiz-adv-x="911" d="M66 215q0 160 174 260q68 39 338 135v58q0 231 -166 231q-139 0 -140 -143q0 -125 -84 -125q-39 0 -64.5 31.5t-25.5 78.5q0 45 28 85t75 70t109.5 47.5t133.5 17.5q303 0 304 -250v-533q0 -72 47 -72q53 0 104 82v-69q-84 -139 -219 -139q-45 0 -73.5 41.5t-28.5 107.5 q-66 -55 -104 -85t-65.5 -44t-54 -17t-69.5 -3q-100 0 -159.5 65.5t-59.5 169.5zM166 1436h258l108 -363h-57zM236 264q0 -68 41.5 -119t97.5 -51q76 0 203 103v352q-342 -121 -342 -285z" />
<glyph unicode="&#xe1;" horiz-adv-x="911" d="M66 215q0 160 174 260q68 39 338 135v58q0 231 -166 231q-139 0 -140 -143q0 -125 -84 -125q-39 0 -64.5 31.5t-25.5 78.5q0 45 28 85t75 70t109.5 47.5t133.5 17.5q303 0 304 -250v-533q0 -72 47 -72q53 0 104 82v-69q-84 -139 -219 -139q-45 0 -73.5 41.5t-28.5 107.5 q-66 -55 -104 -85t-65.5 -44t-54 -17t-69.5 -3q-100 0 -159.5 65.5t-59.5 169.5zM236 264q0 -68 41.5 -119t97.5 -51q76 0 203 103v352q-342 -121 -342 -285zM268 1073l109 363h258l-309 -363h-58z" />
<glyph unicode="&#xe2;" horiz-adv-x="911" d="M66 215q0 160 174 260q68 39 338 135v58q0 231 -166 231q-139 0 -140 -143q0 -125 -84 -125q-39 0 -64.5 31.5t-25.5 78.5q0 45 28 85t75 70t109.5 47.5t133.5 17.5q303 0 304 -250v-533q0 -72 47 -72q53 0 104 82v-69q-84 -139 -219 -139q-45 0 -73.5 41.5t-28.5 107.5 q-66 -55 -104 -85t-65.5 -44t-54 -17t-69.5 -3q-100 0 -159.5 65.5t-59.5 169.5zM143 1114l205 342h197l205 -342h-35l-269 219l-268 -219h-35zM236 264q0 -68 41.5 -119t97.5 -51q76 0 203 103v352q-342 -121 -342 -285z" />
<glyph unicode="&#xe3;" horiz-adv-x="911" d="M66 215q0 160 174 260q68 39 338 135v58q0 231 -166 231q-139 0 -140 -143q0 -125 -84 -125q-39 0 -64.5 31.5t-25.5 78.5q0 45 28 85t75 70t109.5 47.5t133.5 17.5q303 0 304 -250v-533q0 -72 47 -72q53 0 104 82v-69q-84 -139 -219 -139q-45 0 -73.5 41.5t-28.5 107.5 q-66 -55 -104 -85t-65.5 -44t-54 -17t-69.5 -3q-100 0 -159.5 65.5t-59.5 169.5zM131 1174q0 37 18.5 66.5t48 50t66.5 31.5t74 11q31 0 80 -13t100 -30.5t93 -31t59 -13.5q72 0 75 55h46q0 -70 -59.5 -107.5t-143.5 -37.5q-68 0 -124 19.5t-132 54.5q-41 18 -68 18 q-84 0 -90 -73h-43zM236 264q0 -68 41.5 -119t97.5 -51q76 0 203 103v352q-342 -121 -342 -285z" />
<glyph unicode="&#xe4;" horiz-adv-x="911" d="M66 215q0 160 174 260q68 39 338 135v58q0 231 -166 231q-139 0 -140 -143q0 -125 -84 -125q-39 0 -64.5 31.5t-25.5 78.5q0 45 28 85t75 70t109.5 47.5t133.5 17.5q303 0 304 -250v-533q0 -72 47 -72q53 0 104 82v-69q-84 -139 -219 -139q-45 0 -73.5 41.5t-28.5 107.5 q-66 -55 -104 -85t-65.5 -44t-54 -17t-69.5 -3q-100 0 -159.5 65.5t-59.5 169.5zM166 1239q0 39 28.5 66.5t69.5 27.5t69.5 -27.5t28.5 -66.5t-28.5 -66.5t-69.5 -27.5t-69.5 27.5t-28.5 66.5zM236 264q0 -68 41.5 -119t97.5 -51q76 0 203 103v352q-342 -121 -342 -285z M526 1239q0 39 29 66.5t70 27.5t69.5 -27.5t28.5 -66.5t-28.5 -66.5t-69.5 -27.5t-70 27.5t-29 66.5z" />
<glyph unicode="&#xe5;" horiz-adv-x="911" d="M66 215q0 160 174 260q68 39 338 135v58q0 231 -166 231q-139 0 -140 -143q0 -125 -84 -125q-39 0 -64.5 31.5t-25.5 78.5q0 45 28 85t75 70t109.5 47.5t133.5 17.5q303 0 304 -250v-533q0 -72 47 -72q53 0 104 82v-69q-84 -139 -219 -139q-45 0 -73.5 41.5t-28.5 107.5 q-66 -55 -104 -85t-65.5 -44t-54 -17t-69.5 -3q-100 0 -159.5 65.5t-59.5 169.5zM236 264q0 -68 41.5 -119t97.5 -51q76 0 203 103v352q-342 -121 -342 -285zM301 1253q0 51 37 88t90 37t90 -37t37 -88q0 -53 -37 -90t-90 -37t-90 37t-37 90zM360 1253q0 -68 68 -67 q27 0 47.5 19t20.5 48q0 27 -20.5 47.5t-47.5 20.5q-68 0 -68 -68z" />
<glyph unicode="&#xe6;" horiz-adv-x="1458" d="M66 215q0 160 174 260q68 39 338 135v58q0 231 -166 231q-139 0 -140 -143q0 -125 -84 -125q-39 0 -64.5 31.5t-25.5 78.5q0 45 28 85t75 70t109.5 47.5t133.5 17.5q211 0 273 -121q115 121 282 121q80 0 150 -30t121 -80t80.5 -119.5t29.5 -149.5h-639 q0 -94 22.5 -178.5t62.5 -146.5t96.5 -98t121.5 -36q53 0 106.5 16.5t97.5 46t76 68.5t42 82l37 -6q-18 -72 -60.5 -136.5t-97.5 -111.5t-119.5 -74.5t-128.5 -27.5q-117 0 -214 63t-152 170q-20 -45 -50 -79t-57.5 -57.5t-47.5 -35.5l-21 -12q-78 -49 -170 -49 q-100 0 -159.5 65.5t-59.5 169.5zM236 264q0 -68 41.5 -119t97.5 -51q76 0 203 103v352q-342 -121 -342 -285zM741 631h426q0 51 -17 99t-47 83t-71 56.5t-86 21.5q-39 0 -73.5 -21.5t-62.5 -57.5t-46.5 -83t-22.5 -98z" />
<glyph unicode="&#xe7;" horiz-adv-x="921" d="M66 446q0 106 35.5 199.5t96 163.5t141.5 111t171 41q74 0 134.5 -17.5t104.5 -48.5t67.5 -72t23.5 -86q0 -43 -35 -73.5t-78 -30.5q-45 0 -72.5 31.5t-27.5 72.5q0 154 -144 154q-55 0 -101 -24.5t-79 -68.5t-50 -103.5t-17 -127.5q0 -92 21.5 -174t60 -141t94 -94 t123.5 -35q190 0 288 246l39 -13q-88 -360 -373 -376q-59 -55 -59 -103q0 -33 31 -39h59v-71h-43q-113 0 -112 83q0 61 84 130q-78 4 -148 41.5t-122 101t-82.5 146.5t-30.5 177z" />
<glyph unicode="&#xe8;" horiz-adv-x="946" d="M66 436q0 113 30.5 209t86 167t133 110t171.5 39q80 0 150 -30t121 -80t80.5 -119.5t29.5 -149.5h-639q0 -94 22.5 -178.5t62.5 -146.5t96.5 -98t121.5 -36q53 0 106.5 16.5t97.5 46t76 68.5t42 82l37 -6q-18 -72 -60.5 -136.5t-97.5 -111.5t-119.5 -74.5t-128.5 -27.5 q-88 0 -164.5 36.5t-133 99t-89 145.5t-32.5 175zM229 631h426q0 51 -17 99t-47 83t-71 56.5t-86 21.5q-39 0 -73.5 -21.5t-62.5 -57.5t-46.5 -83t-22.5 -98zM231 1436h258l109 -363h-57z" />
<glyph unicode="&#xe9;" horiz-adv-x="946" d="M66 436q0 113 30.5 209t86 167t133 110t171.5 39q80 0 150 -30t121 -80t80.5 -119.5t29.5 -149.5h-639q0 -94 22.5 -178.5t62.5 -146.5t96.5 -98t121.5 -36q53 0 106.5 16.5t97.5 46t76 68.5t42 82l37 -6q-18 -72 -60.5 -136.5t-97.5 -111.5t-119.5 -74.5t-128.5 -27.5 q-88 0 -164.5 36.5t-133 99t-89 145.5t-32.5 175zM229 631h426q0 51 -17 99t-47 83t-71 56.5t-86 21.5q-39 0 -73.5 -21.5t-62.5 -57.5t-46.5 -83t-22.5 -98zM287 1073l108 363h258l-309 -363h-57z" />
<glyph unicode="&#xea;" horiz-adv-x="946" d="M66 436q0 113 30.5 209t86 167t133 110t171.5 39q80 0 150 -30t121 -80t80.5 -119.5t29.5 -149.5h-639q0 -94 22.5 -178.5t62.5 -146.5t96.5 -98t121.5 -36q53 0 106.5 16.5t97.5 46t76 68.5t42 82l37 -6q-18 -72 -60.5 -136.5t-97.5 -111.5t-119.5 -74.5t-128.5 -27.5 q-88 0 -164.5 36.5t-133 99t-89 145.5t-32.5 175zM164 1114l205 342h196l205 -342h-35l-268 219l-268 -219h-35zM229 631h426q0 51 -17 99t-47 83t-71 56.5t-86 21.5q-39 0 -73.5 -21.5t-62.5 -57.5t-46.5 -83t-22.5 -98z" />
<glyph unicode="&#xeb;" horiz-adv-x="946" d="M66 436q0 113 30.5 209t86 167t133 110t171.5 39q80 0 150 -30t121 -80t80.5 -119.5t29.5 -149.5h-639q0 -94 22.5 -178.5t62.5 -146.5t96.5 -98t121.5 -36q53 0 106.5 16.5t97.5 46t76 68.5t42 82l37 -6q-18 -72 -60.5 -136.5t-97.5 -111.5t-119.5 -74.5t-128.5 -27.5 q-88 0 -164.5 36.5t-133 99t-89 145.5t-32.5 175zM186 1239q0 39 29 66.5t70 27.5t69.5 -27.5t28.5 -66.5t-28.5 -66.5t-69.5 -27.5t-70 27.5t-29 66.5zM229 631h426q0 51 -17 99t-47 83t-71 56.5t-86 21.5q-39 0 -73.5 -21.5t-62.5 -57.5t-46.5 -83t-22.5 -98zM547 1239 q0 39 28.5 66.5t69.5 27.5t69.5 -27.5t28.5 -66.5t-28.5 -66.5t-69.5 -27.5t-69.5 27.5t-28.5 66.5z" />
<glyph unicode="&#xec;" horiz-adv-x="569" d="M51 1436h258l109 -363h-58zM80 836l280 125h50v-742q0 -104 28.5 -143t118.5 -39v-37h-465v37q41 0 68.5 7t45 26.5t26 55.5t8.5 93v443q0 53 -3.5 83.5t-9.5 46t-18 19.5t-31 4q-18 0 -84 -16z" />
<glyph unicode="&#xed;" horiz-adv-x="569" d="M51 836l281 125h49v-742q0 -104 28.5 -143t118.5 -39v-37h-465v37q41 0 69 7t45.5 26.5t25.5 55.5t8 93v443q0 53 -3 83.5t-9 46t-18.5 19.5t-30.5 4t-84 -16zM106 1073l109 363h258l-309 -363h-58z" />
<glyph unicode="&#xee;" horiz-adv-x="569" d="M51 1114l205 342h197l204 -342h-34l-269 219l-268 -219h-35zM119 836l280 125h50v-742q0 -104 28.5 -143t118.5 -39v-37h-465v37q41 0 68.5 7t45 26.5t26 55.5t8.5 93v443q0 53 -3.5 83.5t-9.5 46t-18 19.5t-31 4q-18 0 -84 -16z" />
<glyph unicode="&#xef;" horiz-adv-x="569" d="M51 1239q0 39 29 66.5t70 27.5t69.5 -27.5t28.5 -66.5t-29 -66.5t-69 -27.5q-41 0 -70 27.5t-29 66.5zM102 836l281 125h49v-742q0 -104 28.5 -143t119.5 -39v-37h-465v37q41 0 68.5 7t45 26.5t25.5 55.5t8 93v443q0 53 -3 83.5t-9 46t-18.5 19.5t-30.5 4t-84 -16z M412 1239q0 39 28.5 66.5t69.5 27.5t69.5 -27.5t28.5 -66.5t-28.5 -66.5t-69.5 -27.5t-69.5 27.5t-28.5 66.5z" />
<glyph unicode="&#xf1;" horiz-adv-x="1060" d="M20 836l281 125h49v-191q154 190 332 191q45 0 84 -23t67.5 -61.5t46 -91t17.5 -109.5v-457q0 -104 28.5 -143t118.5 -39v-37h-464v37q41 0 68.5 7t45 26.5t25.5 55.5t8 93v426q0 188 -137 189q-115 0 -240 -136v-479q0 -104 29 -143t119 -39v-37h-465v37q41 0 68.5 7 t45 26.5t25.5 55.5t8 93v443q0 53 -3 83.5t-9 46t-18.5 19.5t-30.5 4t-84 -16zM152 1174q0 37 18 66.5t48 50t67 31.5t73 11q31 0 80 -13t100.5 -30.5t93.5 -31t58 -13.5q72 0 76 55h45q0 -70 -59.5 -107.5t-143.5 -37.5q-68 0 -124 19.5t-132 54.5q-41 18 -67 18 q-84 0 -90 -73h-43z" />
<glyph unicode="&#xf2;" d="M66 459q0 104 34.5 195t95 160t143.5 108t179 39t179 -36t143.5 -98.5t95.5 -147.5t35 -181q0 -109 -34 -203t-94.5 -165t-143.5 -110.5t-181 -39.5q-96 0 -179 36.5t-143.5 101t-95 152.5t-34.5 189zM246 1436h258l108 -363h-57zM256 545q0 -109 21.5 -200t60.5 -156.5 t93 -102.5t120 -37q51 0 93 30t73 79t47 112t16 131q0 489 -303 490q-45 0 -85 -27.5t-70.5 -76t-48 -111t-17.5 -131.5z" />
<glyph unicode="&#xf3;" d="M66 459q0 104 34.5 195t95 160t143.5 108t179 39t179 -36t143.5 -98.5t95.5 -147.5t35 -181q0 -109 -34 -203t-94.5 -165t-143.5 -110.5t-181 -39.5q-96 0 -179 36.5t-143.5 101t-95 152.5t-34.5 189zM256 545q0 -109 21.5 -200t60.5 -156.5t93 -102.5t120 -37 q51 0 93 30t73 79t47 112t16 131q0 489 -303 490q-45 0 -85 -27.5t-70.5 -76t-48 -111t-17.5 -131.5zM352 1073l109 363h258l-309 -363h-58z" />
<glyph unicode="&#xf4;" d="M66 459q0 104 34.5 195t95 160t143.5 108t179 39t179 -36t143.5 -98.5t95.5 -147.5t35 -181q0 -109 -34 -203t-94.5 -165t-143.5 -110.5t-181 -39.5q-96 0 -179 36.5t-143.5 101t-95 152.5t-34.5 189zM205 1114l205 342h196l205 -342h-35l-268 219l-268 -219h-35z M256 545q0 -109 21.5 -200t60.5 -156.5t93 -102.5t120 -37q51 0 93 30t73 79t47 112t16 131q0 489 -303 490q-45 0 -85 -27.5t-70.5 -76t-48 -111t-17.5 -131.5z" />
<glyph unicode="&#xf5;" d="M66 459q0 104 34.5 195t95 160t143.5 108t179 39t179 -36t143.5 -98.5t95.5 -147.5t35 -181q0 -109 -34 -203t-94.5 -165t-143.5 -110.5t-181 -39.5q-96 0 -179 36.5t-143.5 101t-95 152.5t-34.5 189zM172 1174q0 37 18.5 66.5t48 50t66.5 31.5t74 11q31 0 80 -13 t100 -30.5t93 -31t59 -13.5q72 0 75 55h45q0 -70 -59 -107.5t-143 -37.5q-68 0 -124 19.5t-132 54.5q-41 18 -68 18q-84 0 -90 -73h-43zM256 545q0 -109 21.5 -200t60.5 -156.5t93 -102.5t120 -37q51 0 93 30t73 79t47 112t16 131q0 489 -303 490q-45 0 -85 -27.5t-70.5 -76 t-48 -111t-17.5 -131.5z" />
<glyph unicode="&#xf6;" d="M66 459q0 104 34.5 195t95 160t143.5 108t179 39t179 -36t143.5 -98.5t95.5 -147.5t35 -181q0 -109 -34 -203t-94.5 -165t-143.5 -110.5t-181 -39.5q-96 0 -179 36.5t-143.5 101t-95 152.5t-34.5 189zM227 1239q0 39 29 66.5t70 27.5t69.5 -27.5t28.5 -66.5t-28.5 -66.5 t-69.5 -27.5t-70 27.5t-29 66.5zM256 545q0 -109 21.5 -200t60.5 -156.5t93 -102.5t120 -37q51 0 93 30t73 79t47 112t16 131q0 489 -303 490q-45 0 -85 -27.5t-70.5 -76t-48 -111t-17.5 -131.5zM588 1239q0 39 28.5 66.5t69.5 27.5t69.5 -27.5t28.5 -66.5t-28.5 -66.5 t-69.5 -27.5t-69.5 27.5t-28.5 66.5z" />
<glyph unicode="&#xf7;" horiz-adv-x="1083" d="M150 639v164h802v-164h-802zM383 330q0 66 49 110.5t121 44.5t121 -44.5t49 -110.5q0 -33 -13.5 -61.5t-37 -50t-54 -34t-65.5 -12.5t-65.5 12.5t-54 34t-37 50t-13.5 61.5zM383 1092q0 66 49 110.5t121 44.5t121 -44.5t49 -110.5t-49 -111t-121 -45t-121 45t-49 111z " />
<glyph unicode="&#xf8;" d="M66 459q0 104 34.5 195t95 160t143.5 108t179 39q80 0 162 -29l37 98l41 -16l-37 -99q117 -57 183.5 -168.5t66.5 -248.5q0 -109 -34 -203t-94.5 -165t-143.5 -110.5t-181 -39.5q-78 0 -147 24l-41 -104l-41 14l41 106q-123 57 -193.5 174t-70.5 265zM256 545 q0 -270 117 -408l270 699q-68 55 -166 55q-45 0 -85 -27.5t-70.5 -76t-48 -111t-17.5 -131.5zM408 102q66 -53 143 -53q51 0 93 30t73 79t47 112t16 131q0 272 -102 400z" />
<glyph unicode="&#xf9;" horiz-adv-x="1060" d="M16 903v37h318v-668q0 -72 55 -121t133 -49q51 0 110.5 44t92.5 108v487q0 94 -30.5 128t-116.5 34v37h317v-661q0 -92 18.5 -125t67.5 -33q31 0 68 16l12 -28l-287 -129h-49v196q-23 -39 -56.5 -73.5t-72.5 -62.5t-81 -44t-81 -16q-57 0 -106 23.5t-86 63t-57.5 93 t-20.5 112.5v469q0 94 -31 128t-117 34zM227 1436h258l109 -363h-57z" />
<glyph unicode="&#xfa;" horiz-adv-x="1060" d="M16 903v37h318v-668q0 -72 55 -121t133 -49q51 0 110.5 44t92.5 108v487q0 94 -30.5 128t-116.5 34v37h317v-661q0 -92 18.5 -125t67.5 -33q31 0 68 16l12 -28l-287 -129h-49v196q-23 -39 -56.5 -73.5t-72.5 -62.5t-81 -44t-81 -16q-57 0 -106 23.5t-86 63t-57.5 93 t-20.5 112.5v469q0 94 -31 128t-117 34zM289 1073l108 363h258l-309 -363h-57z" />
<glyph unicode="&#xfb;" horiz-adv-x="1060" d="M16 903v37h318v-668q0 -72 55 -121t133 -49q51 0 110.5 44t92.5 108v487q0 94 -30.5 128t-116.5 34v37h317v-661q0 -92 18.5 -125t67.5 -33q31 0 68 16l12 -28l-287 -129h-49v196q-23 -39 -56.5 -73.5t-72.5 -62.5t-81 -44t-81 -16q-57 0 -106 23.5t-86 63t-57.5 93 t-20.5 112.5v469q0 94 -31 128t-117 34zM205 1114l205 342h196l205 -342h-35l-268 219l-268 -219h-35z" />
<glyph unicode="&#xfc;" horiz-adv-x="1060" d="M16 903v37h318v-668q0 -72 55 -121t133 -49q51 0 110.5 44t92.5 108v487q0 94 -30.5 128t-116.5 34v37h317v-661q0 -92 18.5 -125t67.5 -33q31 0 68 16l12 -28l-287 -129h-49v196q-23 -39 -56.5 -73.5t-72.5 -62.5t-81 -44t-81 -16q-57 0 -106 23.5t-86 63t-57.5 93 t-20.5 112.5v469q0 94 -31 128t-117 34zM227 1239q0 39 29 66.5t70 27.5t69.5 -27.5t28.5 -66.5t-28.5 -66.5t-69.5 -27.5t-70 27.5t-29 66.5zM588 1239q0 39 28.5 66.5t69.5 27.5t69.5 -27.5t28.5 -66.5t-28.5 -66.5t-69.5 -27.5t-69.5 27.5t-28.5 66.5z" />
<glyph unicode="&#xff;" horiz-adv-x="1052" d="M0 903v37h432v-37q-100 0 -100 -74q0 -31 71 -180l183 -385l194 479q29 74 29 103q0 57 -96 57v37h305v-37q-27 0 -44.5 -5t-32.5 -22.5t-30.5 -49t-38.5 -85.5l-378 -925q-47 -111 -127 -180.5t-162 -69.5q-59 0 -98 30.5t-39 75.5q0 98 104 99q41 0 71.5 -18.5 t63.5 -18.5q63 0 135 170l60 143l-293 615q-117 242 -209 241zM256 1239q0 39 28.5 66.5t69.5 27.5t70 -27.5t29 -66.5t-29 -66.5t-70 -27.5t-69.5 27.5t-28.5 66.5zM616 1239q0 39 29 66.5t70 27.5t69.5 -27.5t28.5 -66.5t-28.5 -66.5t-69.5 -27.5t-70 27.5t-29 66.5z" />
<glyph unicode="&#x152;" horiz-adv-x="2406" d="M66 705q0 150 55 280.5t149.5 229t221 154.5t272.5 56q92 0 180 -24.5t166 -69.5t142.5 -109.5t111.5 -144.5v316h872v-332h-20q-29 145 -96.5 203.5t-190.5 58.5h-352v-528h301q209 0 209 180h37v-471h-37q0 221 -205 221h-305v-569q0 -35 24.5 -60.5t57.5 -25.5h291 q270 0 370 321h50l-125 -391h-881v326q-98 -172 -257 -265.5t-343 -93.5q-147 0 -274.5 58.5t-221.5 160t-148 234.5t-54 285zM315 705q0 -152 31 -275t89.5 -211t141 -135t187.5 -47q102 0 185 48t141.5 135t90 210t31.5 275q0 147 -30.5 267t-89 205t-141.5 132t-187 47 t-188 -46t-141.5 -131t-88.5 -206t-31 -268z" />
<glyph unicode="&#x153;" horiz-adv-x="1695" d="M66 459q0 104 34.5 195t95 160t143.5 108t179 39q244 0 377 -201q121 201 342 201q80 0 149.5 -30t121 -80t81 -119.5t29.5 -149.5h-639q0 -94 22.5 -178.5t62.5 -146.5t96.5 -98t121.5 -36q53 0 106.5 16.5t97.5 46t75.5 68.5t42.5 82l36 -6q-18 -72 -60 -136.5 t-97.5 -111.5t-120 -74.5t-127.5 -27.5q-225 0 -352 206q-133 -207 -365 -206q-96 0 -179 36.5t-143.5 101t-95 152.5t-34.5 189zM256 545q0 -109 21.5 -200t60.5 -156.5t93 -102.5t120 -37q51 0 93 30t73 79t47 112t16 131q0 489 -303 490q-45 0 -85 -27.5t-70.5 -76 t-48 -111t-17.5 -131.5zM979 631h426q0 51 -17.5 99t-47 83t-70.5 56.5t-86 21.5q-39 0 -74 -21.5t-62.5 -57.5t-46 -83t-22.5 -98z" />
<glyph unicode="&#x2c6;" horiz-adv-x="606" d="M0 1513l205 342h196l205 -342h-35l-268 220l-268 -220h-35z" />
<glyph unicode="&#x2dc;" horiz-adv-x="827" d="M70 1573q0 37 18 66.5t48 50t67 32t73 11.5q31 0 80.5 -13.5t100.5 -31t93 -30.5t58 -13q72 0 76 55h45q0 -70 -59.5 -108t-143.5 -38q-68 0 -124 19.5t-132 54.5q-41 18 -67 19q-84 0 -90 -74h-43z" />
<glyph unicode="&#x2000;" horiz-adv-x="927" />
<glyph unicode="&#x2001;" horiz-adv-x="1855" />
<glyph unicode="&#x2002;" horiz-adv-x="927" />
<glyph unicode="&#x2003;" horiz-adv-x="1855" />
<glyph unicode="&#x2004;" horiz-adv-x="618" />
<glyph unicode="&#x2005;" horiz-adv-x="463" />
<glyph unicode="&#x2006;" horiz-adv-x="309" />
<glyph unicode="&#x2007;" horiz-adv-x="309" />
<glyph unicode="&#x2008;" horiz-adv-x="231" />
<glyph unicode="&#x2009;" horiz-adv-x="371" />
<glyph unicode="&#x200a;" horiz-adv-x="103" />
<glyph unicode="&#x2010;" horiz-adv-x="980" d="M121 465v141h739v-141h-739z" />
<glyph unicode="&#x2011;" horiz-adv-x="980" d="M121 465v141h739v-141h-739z" />
<glyph unicode="&#x2012;" horiz-adv-x="980" d="M121 465v141h739v-141h-739z" />
<glyph unicode="&#x2013;" horiz-adv-x="1021" d="M117 487v142h821v-142h-821z" />
<glyph unicode="&#x2014;" horiz-adv-x="1124" d="M117 487v142h923v-142h-923z" />
<glyph unicode="&#x2018;" horiz-adv-x="423" d="M68 1280h168l110 -502h-98z" />
<glyph unicode="&#x2019;" horiz-adv-x="423" d="M82 778l111 502h167l-180 -502h-98z" />
<glyph unicode="&#x201a;" horiz-adv-x="579" d="M55 -367q74 211 74 328q0 51 -66 133l144 146q74 -93 76 -156q0 -61 -199 -451h-29z" />
<glyph unicode="&#x201c;" horiz-adv-x="735" d="M68 1280h168l110 -502h-98zM377 1280h168l110 -502h-98z" />
<glyph unicode="&#x201d;" horiz-adv-x="700" d="M82 778l111 502h167l-180 -502h-98zM395 778l111 502h167l-180 -502h-98z" />
<glyph unicode="&#x201e;" horiz-adv-x="778" d="M113 -207q74 217 73 328q0 45 -63 133l141 145q76 -94 76 -155q0 -59 -201 -451h-26zM465 -205q37 111 56.5 192t19.5 136q0 43 -66 133l141 145q76 -87 76 -155t-198 -451h-29z" />
<glyph unicode="&#x2022;" horiz-adv-x="919" d="M41 608q0 88 34 164t92 132.5t134 88t162 31.5q84 0 159.5 -33t133 -90t91.5 -132t34 -161t-33 -161.5t-90.5 -133t-133 -91.5t-161.5 -34t-163 33t-134 89.5t-91 133t-34 164.5z" />
<glyph unicode="&#x2026;" horiz-adv-x="1157" d="M68 106l141 140q33 -35 65.5 -70t67.5 -70q-37 -33 -70.5 -69.5t-66.5 -71.5zM457 106l141 140q33 -35 65.5 -70t67.5 -70q-37 -33 -70.5 -69.5t-66.5 -71.5zM846 106l141 140q33 -35 65.5 -70t67.5 -70q-37 -33 -70.5 -69.5t-66.5 -71.5z" />
<glyph unicode="&#x202f;" horiz-adv-x="371" />
<glyph unicode="&#x2039;" horiz-adv-x="675" d="M102 471l408 469h63l-262 -469l262 -471h-63z" />
<glyph unicode="&#x203a;" horiz-adv-x="675" d="M102 0l263 471l-263 469h64l407 -469l-407 -471h-64z" />
<glyph unicode="&#x205f;" horiz-adv-x="463" />
<glyph unicode="&#x20ac;" horiz-adv-x="1259" d="M59 391l70 123h111q-2 16 -2 24.5v16.5v20.5t2 26.5h-181l70 123h133q29 92 84 169t129 132t163 86t187 31q111 0 207 -37t174 -102l-63 -109q-63 59 -144 92t-174 33q-143 0 -257.5 -80t-174.5 -215h656l-74 -123h-613q-2 -16 -2 -26.5v-20.5v-16.5t2 -24.5h564 l-72 -123h-465q57 -137 173 -219t263 -82q92 0 173 33t145 92q12 -25 17 -34t9.5 -16t11.5 -18.5t25 -40.5q-78 -66 -174 -102.5t-207 -36.5q-100 0 -190 32t-164 88t-128 134t-83 170h-201z" />
<glyph unicode="&#x2122;" horiz-adv-x="2117" d="M49 1184l25 209h747l19 -209h-33q-10 39 -25.5 66.5t-41 45t-65.5 24.5t-102 7h-45v-567q0 -96 27 -128t98 -32v-37h-411v37q68 0 92 34t24 126v567h-36q-66 0 -107 -7t-67.5 -24.5t-40 -45t-19.5 -66.5h-39zM911 563v37q66 0 94.5 35t28.5 125v438q0 86 -25.5 122 t-97.5 36v37h299l283 -590l272 590h295v-37q-66 0 -94.5 -31t-28.5 -127v-438q0 -90 29 -125t94 -35v-37h-415v37q66 0 94 33t28 127v479h-4l-313 -676h-35l-313 666h-4v-469q0 -90 28.5 -125t94.5 -35v-37h-310z" />
<glyph unicode="&#x25fc;" horiz-adv-x="942" d="M0 0v942h942v-942h-942z" />
<glyph unicode="&#xfb01;" horiz-adv-x="1101" d="M37 870v70h180v141q0 74 25.5 137.5t74 109.5t119 71.5t162.5 25.5q154 0 238 -45t84 -120q0 -80 -84 -80q-74 0 -101 45l-37 86q-31 45 -108 45q-88 0 -145.5 -51.5t-57.5 -124.5v-240h526v-721q0 -104 29 -143t119 -39v-37h-991v37q41 0 68.5 7t45 26.5t25.5 55.5t8 93 v651h-180zM387 219q0 -104 28.5 -143t119.5 -39h61q41 0 68.5 7t45 26.5t25.5 55.5t8 93v504q0 51 -2 81t-9 45t-19.5 18t-30.5 3h-295v-651z" />
<glyph unicode="&#xfb02;" horiz-adv-x="1202" d="M37 870v70h180v141q0 72 25.5 134.5t68.5 109.5t101.5 73.5t124.5 26.5q182 0 260 -71l159 71h50v-1206q0 -104 28.5 -143t118.5 -39v-37h-465v37q41 0 68.5 7t45 26.5t26 55.5t8.5 93v907v65t-2 36q-18 -47 -80 -47q-63 0 -109 88q-45 88 -117 88q-27 0 -52 -14.5 t-44.5 -39t-32 -56.5t-12.5 -66v-240h229v-70h-229v-651q0 -104 28.5 -143t119.5 -39v-37h-465v37q41 0 68.5 7t45 26.5t25.5 55.5t8 93v651h-180z" />
</font>
</defs>
</svg>
